<?xml version="1.0" encoding="UTF-8" standalone="no"?>
<!DOCTYPE svg PUBLIC "-//W3C//DTD SVG 1.1//EN"
 "http://www.w3.org/Graphics/SVG/1.1/DTD/svg11.dtd">
<!-- Generated by graphviz version 2.40.1 (20161225.0304)
 -->
<!-- Title: Actions_toggleLivingLightA Pages: 1 -->
<svg width="273pt" height="66pt"
 viewBox="0.00 0.00 273.00 66.00" xmlns="http://www.w3.org/2000/svg" xmlns:xlink="http://www.w3.org/1999/xlink">
<g id="graph0" class="graph" transform="scale(1 1) rotate(0) translate(4 62)">
<title>Actions_toggleLivingLightA</title>
<polygon fill="#ffffff" stroke="transparent" points="-4,4 -4,-62 269,-62 269,4 -4,4"/>
<!-- Node76 -->
<g id="node1" class="node">
<title>Node76</title>
<polygon fill="#bfbfbf" stroke="#000000" points="0,-19.5 0,-38.5 134,-38.5 134,-19.5 0,-19.5"/>
<text text-anchor="middle" x="67" y="-26.5" font-family="Helvetica,sans-Serif" font-size="10.00" fill="#000000">Actions_toggleLivingLightA</text>
</g>
<!-- Node77 -->
<g id="node2" class="node">
<title>Node77</title>
<g id="a_node2"><a xlink:href="gpio_8cpp.html#a051e6d6b22995472699132717f0d01ee" target="_top" xlink:title="Get pin state. ">
<polygon fill="#ffffff" stroke="#000000" points="170,-38.5 170,-57.5 265,-57.5 265,-38.5 170,-38.5"/>
<text text-anchor="middle" x="217.5" y="-45.5" font-family="Helvetica,sans-Serif" font-size="10.00" fill="#000000">Gpio_GetPinState</text>
</a>
</g>
</g>
<!-- Node76&#45;&gt;Node77 -->
<g id="edge1" class="edge">
<title>Node76&#45;&gt;Node77</title>
<path fill="none" stroke="#191970" d="M134.3266,-37.4997C142.784,-38.5674 151.3765,-39.6522 159.6702,-40.6992"/>
<polygon fill="#191970" stroke="#191970" points="159.2497,-44.1738 169.6094,-41.954 160.1266,-37.229 159.2497,-44.1738"/>
</g>
<!-- Node78 -->
<g id="node3" class="node">
<title>Node78</title>
<g id="a_node3"><a xlink:href="gpio_8cpp.html#a15f40150179c8a60447347a0f5c00bd7" target="_top" xlink:title="Set pin state to High(true) or Low(false) ">
<polygon fill="#ffffff" stroke="#000000" points="170,-.5 170,-19.5 265,-19.5 265,-.5 170,-.5"/>
<text text-anchor="middle" x="217.5" y="-7.5" font-family="Helvetica,sans-Serif" font-size="10.00" fill="#000000">Gpio_SetPinState</text>
</a>
</g>
</g>
<!-- Node76&#45;&gt;Node78 -->
<g id="edge2" class="edge">
<title>Node76&#45;&gt;Node78</title>
<path fill="none" stroke="#191970" d="M134.3266,-20.5003C142.784,-19.4326 151.3765,-18.3478 159.6702,-17.3008"/>
<polygon fill="#191970" stroke="#191970" points="160.1266,-20.771 169.6094,-16.046 159.2497,-13.8262 160.1266,-20.771"/>
</g>
</g>
</svg>
