<?xml version="1.0" encoding="UTF-8" standalone="no"?>
<!DOCTYPE svg PUBLIC "-//W3C//DTD SVG 1.1//EN"
 "http://www.w3.org/Graphics/SVG/1.1/DTD/svg11.dtd">
<!-- Generated by graphviz version 2.40.1 (20161225.0304)
 -->
<!-- Title: Actions_toggleKitchenLedLight Pages: 1 -->
<svg width="269pt" height="66pt"
 viewBox="0.00 0.00 269.00 66.00" xmlns="http://www.w3.org/2000/svg" xmlns:xlink="http://www.w3.org/1999/xlink">
<g id="graph0" class="graph" transform="scale(1 1) rotate(0) translate(4 62)">
<title>Actions_toggleKitchenLedLight</title>
<polygon fill="#ffffff" stroke="transparent" points="-4,4 -4,-62 265,-62 265,4 -4,4"/>
<!-- Node64 -->
<g id="node1" class="node">
<title>Node64</title>
<polygon fill="#bfbfbf" stroke="#000000" points="0,-14 0,-44 130,-44 130,-14 0,-14"/>
<text text-anchor="start" x="8" y="-32" font-family="Helvetica,sans-Serif" font-size="10.00" fill="#000000">Actions_toggleKitchenLed</text>
<text text-anchor="middle" x="65" y="-21" font-family="Helvetica,sans-Serif" font-size="10.00" fill="#000000">Light</text>
</g>
<!-- Node65 -->
<g id="node2" class="node">
<title>Node65</title>
<g id="a_node2"><a xlink:href="gpio_8cpp.html#a051e6d6b22995472699132717f0d01ee" target="_top" xlink:title="Get pin state. ">
<polygon fill="#ffffff" stroke="#000000" points="166,-38.5 166,-57.5 261,-57.5 261,-38.5 166,-38.5"/>
<text text-anchor="middle" x="213.5" y="-45.5" font-family="Helvetica,sans-Serif" font-size="10.00" fill="#000000">Gpio_GetPinState</text>
</a>
</g>
</g>
<!-- Node64&#45;&gt;Node65 -->
<g id="edge1" class="edge">
<title>Node64&#45;&gt;Node65</title>
<path fill="none" stroke="#191970" d="M130.1343,-37.3337C138.6664,-38.4253 147.3615,-39.5378 155.7598,-40.6124"/>
<polygon fill="#191970" stroke="#191970" points="155.4624,-44.1028 165.8258,-41.9003 156.3509,-37.1594 155.4624,-44.1028"/>
</g>
<!-- Node66 -->
<g id="node3" class="node">
<title>Node66</title>
<g id="a_node3"><a xlink:href="gpio_8cpp.html#a15f40150179c8a60447347a0f5c00bd7" target="_top" xlink:title="Set pin state to High(true) or Low(false) ">
<polygon fill="#ffffff" stroke="#000000" points="166,-.5 166,-19.5 261,-19.5 261,-.5 166,-.5"/>
<text text-anchor="middle" x="213.5" y="-7.5" font-family="Helvetica,sans-Serif" font-size="10.00" fill="#000000">Gpio_SetPinState</text>
</a>
</g>
</g>
<!-- Node64&#45;&gt;Node66 -->
<g id="edge2" class="edge">
<title>Node64&#45;&gt;Node66</title>
<path fill="none" stroke="#191970" d="M130.1343,-20.6663C138.6664,-19.5747 147.3615,-18.4622 155.7598,-17.3876"/>
<polygon fill="#191970" stroke="#191970" points="156.3509,-20.8406 165.8258,-16.0997 155.4624,-13.8972 156.3509,-20.8406"/>
</g>
</g>
</svg>
