<?xml version="1.0" encoding="UTF-8" standalone="no"?>
<!DOCTYPE svg PUBLIC "-//W3C//DTD SVG 1.1//EN"
 "http://www.w3.org/Graphics/SVG/1.1/DTD/svg11.dtd">
<!-- Generated by graphviz version 2.40.1 (20161225.0304)
 -->
<!-- Title: Actions_toggleWallLightB Pages: 1 -->
<svg width="267pt" height="66pt"
 viewBox="0.00 0.00 267.00 66.00" xmlns="http://www.w3.org/2000/svg" xmlns:xlink="http://www.w3.org/1999/xlink">
<g id="graph0" class="graph" transform="scale(1 1) rotate(0) translate(4 62)">
<title>Actions_toggleWallLightB</title>
<polygon fill="#ffffff" stroke="transparent" points="-4,4 -4,-62 263,-62 263,4 -4,4"/>
<!-- Node92 -->
<g id="node1" class="node">
<title>Node92</title>
<polygon fill="#bfbfbf" stroke="#000000" points="0,-19.5 0,-38.5 128,-38.5 128,-19.5 0,-19.5"/>
<text text-anchor="middle" x="64" y="-26.5" font-family="Helvetica,sans-Serif" font-size="10.00" fill="#000000">Actions_toggleWallLightB</text>
</g>
<!-- Node93 -->
<g id="node2" class="node">
<title>Node93</title>
<g id="a_node2"><a xlink:href="gpio_8cpp.html#a051e6d6b22995472699132717f0d01ee" target="_top" xlink:title="Get pin state. ">
<polygon fill="#ffffff" stroke="#000000" points="164,-38.5 164,-57.5 259,-57.5 259,-38.5 164,-38.5"/>
<text text-anchor="middle" x="211.5" y="-45.5" font-family="Helvetica,sans-Serif" font-size="10.00" fill="#000000">Gpio_GetPinState</text>
</a>
</g>
</g>
<!-- Node92&#45;&gt;Node93 -->
<g id="edge1" class="edge">
<title>Node92&#45;&gt;Node93</title>
<path fill="none" stroke="#191970" d="M128.2666,-37.2784C136.7662,-38.3733 145.4367,-39.4902 153.8163,-40.5696"/>
<polygon fill="#191970" stroke="#191970" points="153.4971,-44.0573 163.8624,-41.8636 154.3915,-37.1146 153.4971,-44.0573"/>
</g>
<!-- Node94 -->
<g id="node3" class="node">
<title>Node94</title>
<g id="a_node3"><a xlink:href="gpio_8cpp.html#a15f40150179c8a60447347a0f5c00bd7" target="_top" xlink:title="Set pin state to High(true) or Low(false) ">
<polygon fill="#ffffff" stroke="#000000" points="164,-.5 164,-19.5 259,-19.5 259,-.5 164,-.5"/>
<text text-anchor="middle" x="211.5" y="-7.5" font-family="Helvetica,sans-Serif" font-size="10.00" fill="#000000">Gpio_SetPinState</text>
</a>
</g>
</g>
<!-- Node92&#45;&gt;Node94 -->
<g id="edge2" class="edge">
<title>Node92&#45;&gt;Node94</title>
<path fill="none" stroke="#191970" d="M128.2666,-20.7216C136.7662,-19.6267 145.4367,-18.5098 153.8163,-17.4304"/>
<polygon fill="#191970" stroke="#191970" points="154.3915,-20.8854 163.8624,-16.1364 153.4971,-13.9427 154.3915,-20.8854"/>
</g>
</g>
</svg>
