<?xml version="1.0" encoding="UTF-8" standalone="no"?>
<!DOCTYPE svg PUBLIC "-//W3C//DTD SVG 1.1//EN"
 "http://www.w3.org/Graphics/SVG/1.1/DTD/svg11.dtd">
<!-- Generated by graphviz version 2.40.1 (20161225.0304)
 -->
<!-- Title: actions.cpp Pages: 1 -->
<svg width="336pt" height="140pt"
 viewBox="0.00 0.00 335.50 140.00" xmlns="http://www.w3.org/2000/svg" xmlns:xlink="http://www.w3.org/1999/xlink">
<g id="graph0" class="graph" transform="scale(1 1) rotate(0) translate(4 136)">
<title>actions.cpp</title>
<polygon fill="#ffffff" stroke="transparent" points="-4,4 -4,-136 331.5,-136 331.5,4 -4,4"/>
<!-- Node0 -->
<g id="node1" class="node">
<title>Node0</title>
<polygon fill="#bfbfbf" stroke="#000000" points="140.5,-112.5 140.5,-131.5 207.5,-131.5 207.5,-112.5 140.5,-112.5"/>
<text text-anchor="middle" x="174" y="-119.5" font-family="Helvetica,sans-Serif" font-size="10.00" fill="#000000">actions.cpp</text>
</g>
<!-- Node1 -->
<g id="node2" class="node">
<title>Node1</title>
<polygon fill="#ffffff" stroke="#bfbfbf" points="0,-56.5 0,-75.5 58,-75.5 58,-56.5 0,-56.5"/>
<text text-anchor="middle" x="29" y="-63.5" font-family="Helvetica,sans-Serif" font-size="10.00" fill="#000000">Arduino.h</text>
</g>
<!-- Node0&#45;&gt;Node1 -->
<g id="edge1" class="edge">
<title>Node0&#45;&gt;Node1</title>
<path fill="none" stroke="#191970" d="M149.0736,-112.3733C125.3798,-103.2226 89.5489,-89.3844 63.1932,-79.2057"/>
<polygon fill="#191970" stroke="#191970" points="64.1906,-75.8389 53.6011,-75.5011 61.6686,-82.3689 64.1906,-75.8389"/>
</g>
<!-- Node2 -->
<g id="node3" class="node">
<title>Node2</title>
<g id="a_node3"><a xlink:href="actions_8h.html" target="_top" xlink:title="actions.h">
<polygon fill="#ffffff" stroke="#000000" points="76,-56.5 76,-75.5 132,-75.5 132,-56.5 76,-56.5"/>
<text text-anchor="middle" x="104" y="-63.5" font-family="Helvetica,sans-Serif" font-size="10.00" fill="#000000">actions.h</text>
</a>
</g>
</g>
<!-- Node0&#45;&gt;Node2 -->
<g id="edge2" class="edge">
<title>Node0&#45;&gt;Node2</title>
<path fill="none" stroke="#191970" d="M161.8069,-112.2455C151.3679,-103.8943 136.1345,-91.7076 123.926,-81.9408"/>
<polygon fill="#191970" stroke="#191970" points="126.0485,-79.1566 116.0533,-75.6427 121.6756,-84.6227 126.0485,-79.1566"/>
</g>
<!-- Node5 -->
<g id="node6" class="node">
<title>Node5</title>
<g id="a_node6"><a xlink:href="timer_8h.html" target="_top" xlink:title="timer.h">
<polygon fill="#ffffff" stroke="#000000" points="150.5,-56.5 150.5,-75.5 197.5,-75.5 197.5,-56.5 150.5,-56.5"/>
<text text-anchor="middle" x="174" y="-63.5" font-family="Helvetica,sans-Serif" font-size="10.00" fill="#000000">timer.h</text>
</a>
</g>
</g>
<!-- Node0&#45;&gt;Node5 -->
<g id="edge5" class="edge">
<title>Node0&#45;&gt;Node5</title>
<path fill="none" stroke="#191970" d="M174,-112.2455C174,-104.9382 174,-94.6944 174,-85.7046"/>
<polygon fill="#191970" stroke="#191970" points="177.5001,-85.6426 174,-75.6427 170.5001,-85.6427 177.5001,-85.6426"/>
</g>
<!-- Node6 -->
<g id="node7" class="node">
<title>Node6</title>
<g id="a_node7"><a xlink:href="gpio_8h.html" target="_top" xlink:title="gpio.h">
<polygon fill="#ffffff" stroke="#000000" points="215.5,-56.5 215.5,-75.5 258.5,-75.5 258.5,-56.5 215.5,-56.5"/>
<text text-anchor="middle" x="237" y="-63.5" font-family="Helvetica,sans-Serif" font-size="10.00" fill="#000000">gpio.h</text>
</a>
</g>
</g>
<!-- Node0&#45;&gt;Node6 -->
<g id="edge8" class="edge">
<title>Node0&#45;&gt;Node6</title>
<path fill="none" stroke="#191970" d="M184.9738,-112.2455C194.1882,-104.0549 207.5532,-92.1749 218.4297,-82.5069"/>
<polygon fill="#191970" stroke="#191970" points="221.0032,-84.9023 226.152,-75.6427 216.3526,-79.6704 221.0032,-84.9023"/>
</g>
<!-- Node7 -->
<g id="node8" class="node">
<title>Node7</title>
<g id="a_node8"><a xlink:href="logger_8h.html" target="_top" xlink:title="logger.h">
<polygon fill="#ffffff" stroke="#000000" points="276.5,-56.5 276.5,-75.5 327.5,-75.5 327.5,-56.5 276.5,-56.5"/>
<text text-anchor="middle" x="302" y="-63.5" font-family="Helvetica,sans-Serif" font-size="10.00" fill="#000000">logger.h</text>
</a>
</g>
</g>
<!-- Node0&#45;&gt;Node7 -->
<g id="edge11" class="edge">
<title>Node0&#45;&gt;Node7</title>
<path fill="none" stroke="#191970" d="M196.004,-112.3733C216.6435,-103.3435 247.7158,-89.7494 270.8889,-79.6111"/>
<polygon fill="#191970" stroke="#191970" points="272.5245,-82.7159 280.2831,-75.5011 269.7187,-76.3028 272.5245,-82.7159"/>
</g>
<!-- Node3 -->
<g id="node4" class="node">
<title>Node3</title>
<polygon fill="#ffffff" stroke="#bfbfbf" points="110.5,-.5 110.5,-19.5 159.5,-19.5 159.5,-.5 110.5,-.5"/>
<text text-anchor="middle" x="135" y="-7.5" font-family="Helvetica,sans-Serif" font-size="10.00" fill="#000000">stdint.h</text>
</g>
<!-- Node2&#45;&gt;Node3 -->
<g id="edge3" class="edge">
<title>Node2&#45;&gt;Node3</title>
<path fill="none" stroke="#191970" d="M109.3998,-56.2455C113.6227,-48.617 119.6173,-37.7881 124.7441,-28.5267"/>
<polygon fill="#191970" stroke="#191970" points="127.881,-30.0867 129.6621,-19.6427 121.7568,-26.6965 127.881,-30.0867"/>
</g>
<!-- Node4 -->
<g id="node5" class="node">
<title>Node4</title>
<polygon fill="#ffffff" stroke="#bfbfbf" points="178,-.5 178,-19.5 234,-19.5 234,-.5 178,-.5"/>
<text text-anchor="middle" x="206" y="-7.5" font-family="Helvetica,sans-Serif" font-size="10.00" fill="#000000">stdbool.h</text>
</g>
<!-- Node2&#45;&gt;Node4 -->
<g id="edge4" class="edge">
<title>Node2&#45;&gt;Node4</title>
<path fill="none" stroke="#191970" d="M121.767,-56.2455C137.7095,-47.4928 161.3259,-34.527 179.4989,-24.5496"/>
<polygon fill="#191970" stroke="#191970" points="181.3552,-27.5233 188.4366,-19.6427 177.9863,-21.3873 181.3552,-27.5233"/>
</g>
<!-- Node5&#45;&gt;Node3 -->
<g id="edge6" class="edge">
<title>Node5&#45;&gt;Node3</title>
<path fill="none" stroke="#191970" d="M167.2067,-56.2455C161.7822,-48.4564 154.0339,-37.3308 147.4967,-27.9439"/>
<polygon fill="#191970" stroke="#191970" points="150.3025,-25.8485 141.7154,-19.6427 144.5583,-29.849 150.3025,-25.8485"/>
</g>
<!-- Node5&#45;&gt;Node4 -->
<g id="edge7" class="edge">
<title>Node5&#45;&gt;Node4</title>
<path fill="none" stroke="#191970" d="M179.574,-56.2455C183.9331,-48.617 190.1211,-37.7881 195.4133,-28.5267"/>
<polygon fill="#191970" stroke="#191970" points="198.5673,-30.0616 200.4899,-19.6427 192.4896,-26.5886 198.5673,-30.0616"/>
</g>
<!-- Node6&#45;&gt;Node3 -->
<g id="edge9" class="edge">
<title>Node6&#45;&gt;Node3</title>
<path fill="none" stroke="#191970" d="M219.233,-56.2455C203.2905,-47.4928 179.6741,-34.527 161.5011,-24.5496"/>
<polygon fill="#191970" stroke="#191970" points="163.0137,-21.3873 152.5634,-19.6427 159.6448,-27.5233 163.0137,-21.3873"/>
</g>
<!-- Node6&#45;&gt;Node4 -->
<g id="edge10" class="edge">
<title>Node6&#45;&gt;Node4</title>
<path fill="none" stroke="#191970" d="M231.6002,-56.2455C227.3773,-48.617 221.3827,-37.7881 216.2559,-28.5267"/>
<polygon fill="#191970" stroke="#191970" points="219.2432,-26.6965 211.3379,-19.6427 213.119,-30.0867 219.2432,-26.6965"/>
</g>
</g>
</svg>
