<?xml version="1.0" encoding="UTF-8" standalone="no"?>
<!DOCTYPE svg PUBLIC "-//W3C//DTD SVG 1.1//EN"
 "http://www.w3.org/Graphics/SVG/1.1/DTD/svg11.dtd">
<!-- Generated by graphviz version 2.40.1 (20161225.0304)
 -->
<!-- Title: Actions_toggleLed Pages: 1 -->
<svg width="236pt" height="66pt"
 viewBox="0.00 0.00 236.00 66.00" xmlns="http://www.w3.org/2000/svg" xmlns:xlink="http://www.w3.org/1999/xlink">
<g id="graph0" class="graph" transform="scale(1 1) rotate(0) translate(4 62)">
<title>Actions_toggleLed</title>
<polygon fill="#ffffff" stroke="transparent" points="-4,4 -4,-62 232,-62 232,4 -4,4"/>
<!-- Node72 -->
<g id="node1" class="node">
<title>Node72</title>
<polygon fill="#bfbfbf" stroke="#000000" points="0,-19.5 0,-38.5 97,-38.5 97,-19.5 0,-19.5"/>
<text text-anchor="middle" x="48.5" y="-26.5" font-family="Helvetica,sans-Serif" font-size="10.00" fill="#000000">Actions_toggleLed</text>
</g>
<!-- Node73 -->
<g id="node2" class="node">
<title>Node73</title>
<g id="a_node2"><a xlink:href="gpio_8cpp.html#a051e6d6b22995472699132717f0d01ee" target="_top" xlink:title="Get pin state. ">
<polygon fill="#ffffff" stroke="#000000" points="133,-38.5 133,-57.5 228,-57.5 228,-38.5 133,-38.5"/>
<text text-anchor="middle" x="180.5" y="-45.5" font-family="Helvetica,sans-Serif" font-size="10.00" fill="#000000">Gpio_GetPinState</text>
</a>
</g>
</g>
<!-- Node72&#45;&gt;Node73 -->
<g id="edge1" class="edge">
<title>Node72&#45;&gt;Node73</title>
<path fill="none" stroke="#191970" d="M97.2769,-36.0209C105.6171,-37.2214 114.3517,-38.4787 122.8956,-39.7085"/>
<polygon fill="#191970" stroke="#191970" points="122.406,-43.174 132.8027,-41.1345 123.4034,-36.2454 122.406,-43.174"/>
</g>
<!-- Node74 -->
<g id="node3" class="node">
<title>Node74</title>
<g id="a_node3"><a xlink:href="gpio_8cpp.html#a15f40150179c8a60447347a0f5c00bd7" target="_top" xlink:title="Set pin state to High(true) or Low(false) ">
<polygon fill="#ffffff" stroke="#000000" points="133,-.5 133,-19.5 228,-19.5 228,-.5 133,-.5"/>
<text text-anchor="middle" x="180.5" y="-7.5" font-family="Helvetica,sans-Serif" font-size="10.00" fill="#000000">Gpio_SetPinState</text>
</a>
</g>
</g>
<!-- Node72&#45;&gt;Node74 -->
<g id="edge2" class="edge">
<title>Node72&#45;&gt;Node74</title>
<path fill="none" stroke="#191970" d="M97.2769,-21.9791C105.6171,-20.7786 114.3517,-19.5213 122.8956,-18.2915"/>
<polygon fill="#191970" stroke="#191970" points="123.4034,-21.7546 132.8027,-16.8655 122.406,-14.826 123.4034,-21.7546"/>
</g>
</g>
</svg>
