<?xml version="1.0" encoding="UTF-8" standalone="no"?>
<!DOCTYPE svg PUBLIC "-//W3C//DTD SVG 1.1//EN"
 "http://www.w3.org/Graphics/SVG/1.1/DTD/svg11.dtd">
<!-- Generated by graphviz version 2.40.1 (20161225.0304)
 -->
<!-- Title: actions.h Pages: 1 -->
<svg width="261pt" height="140pt"
 viewBox="0.00 0.00 260.50 140.00" xmlns="http://www.w3.org/2000/svg" xmlns:xlink="http://www.w3.org/1999/xlink">
<g id="graph0" class="graph" transform="scale(1 1) rotate(0) translate(4 136)">
<title>actions.h</title>
<polygon fill="#ffffff" stroke="transparent" points="-4,4 -4,-136 256.5,-136 256.5,4 -4,4"/>
<!-- Node3 -->
<g id="node1" class="node">
<title>Node3</title>
<polygon fill="#bfbfbf" stroke="#000000" points="67.5,-112.5 67.5,-131.5 123.5,-131.5 123.5,-112.5 67.5,-112.5"/>
<text text-anchor="middle" x="95.5" y="-119.5" font-family="Helvetica,sans-Serif" font-size="10.00" fill="#000000">actions.h</text>
</g>
<!-- Node4 -->
<g id="node2" class="node">
<title>Node4</title>
<g id="a_node2"><a xlink:href="actions_8cpp.html" target="_top" xlink:title="actions.cpp">
<polygon fill="#ffffff" stroke="#000000" points="0,-56.5 0,-75.5 67,-75.5 67,-56.5 0,-56.5"/>
<text text-anchor="middle" x="33.5" y="-63.5" font-family="Helvetica,sans-Serif" font-size="10.00" fill="#000000">actions.cpp</text>
</a>
</g>
</g>
<!-- Node3&#45;&gt;Node4 -->
<g id="edge1" class="edge">
<title>Node3&#45;&gt;Node4</title>
<path fill="none" stroke="#191970" d="M77.0779,-105.3607C66.3519,-95.6727 53.2066,-83.7995 44.1758,-75.6427"/>
<polygon fill="#191970" stroke="#191970" points="74.9334,-108.14 84.7004,-112.2455 79.6254,-102.9453 74.9334,-108.14"/>
</g>
<!-- Node5 -->
<g id="node3" class="node">
<title>Node5</title>
<g id="a_node3"><a xlink:href="event__mgr_8h.html" target="_top" xlink:title="event_mgr.h">
<polygon fill="#ffffff" stroke="#000000" points="124,-56.5 124,-75.5 195,-75.5 195,-56.5 124,-56.5"/>
<text text-anchor="middle" x="159.5" y="-63.5" font-family="Helvetica,sans-Serif" font-size="10.00" fill="#000000">event_mgr.h</text>
</a>
</g>
</g>
<!-- Node3&#45;&gt;Node5 -->
<g id="edge2" class="edge">
<title>Node3&#45;&gt;Node5</title>
<path fill="none" stroke="#191970" d="M114.1914,-105.645C125.3219,-95.9058 139.0663,-83.8795 148.4798,-75.6427"/>
<polygon fill="#191970" stroke="#191970" points="111.869,-103.0264 106.6479,-112.2455 116.4785,-108.2945 111.869,-103.0264"/>
</g>
<!-- Node6 -->
<g id="node4" class="node">
<title>Node6</title>
<g id="a_node4"><a xlink:href="event__mgr_8cpp.html" target="_top" xlink:title="event_mgr.cpp">
<polygon fill="#ffffff" stroke="#000000" points="55,-.5 55,-19.5 136,-19.5 136,-.5 55,-.5"/>
<text text-anchor="middle" x="95.5" y="-7.5" font-family="Helvetica,sans-Serif" font-size="10.00" fill="#000000">event_mgr.cpp</text>
</a>
</g>
</g>
<!-- Node3&#45;&gt;Node6 -->
<g id="edge5" class="edge">
<title>Node3&#45;&gt;Node6</title>
<path fill="none" stroke="#191970" d="M95.5,-102.2702C95.5,-77.9985 95.5,-37.7725 95.5,-19.5249"/>
<polygon fill="#191970" stroke="#191970" points="92.0001,-102.4509 95.5,-112.4509 99.0001,-102.451 92.0001,-102.4509"/>
</g>
<!-- Node5&#45;&gt;Node6 -->
<g id="edge3" class="edge">
<title>Node5&#45;&gt;Node6</title>
<path fill="none" stroke="#191970" d="M140.8086,-49.645C129.6781,-39.9058 115.9337,-27.8795 106.5202,-19.6427"/>
<polygon fill="#191970" stroke="#191970" points="138.5215,-52.2945 148.3521,-56.2455 143.131,-47.0264 138.5215,-52.2945"/>
</g>
<!-- Node7 -->
<g id="node5" class="node">
<title>Node7</title>
<g id="a_node5"><a xlink:href="sketch__aug19a_8ino.html" target="_top" xlink:title="sketch_aug19a.ino">
<polygon fill="#ffffff" stroke="#000000" points="154.5,-.5 154.5,-19.5 252.5,-19.5 252.5,-.5 154.5,-.5"/>
<text text-anchor="middle" x="203.5" y="-7.5" font-family="Helvetica,sans-Serif" font-size="10.00" fill="#000000">sketch_aug19a.ino</text>
</a>
</g>
</g>
<!-- Node5&#45;&gt;Node7 -->
<g id="edge4" class="edge">
<title>Node5&#45;&gt;Node7</title>
<path fill="none" stroke="#191970" d="M173.4769,-48.2112C180.9129,-38.7472 189.766,-27.4797 195.9236,-19.6427"/>
<polygon fill="#191970" stroke="#191970" points="170.5903,-46.22 167.1642,-56.2455 176.0946,-50.5447 170.5903,-46.22"/>
</g>
</g>
</svg>
