<?xml version="1.0" encoding="UTF-8" standalone="no"?>
<!DOCTYPE svg PUBLIC "-//W3C//DTD SVG 1.1//EN"
 "http://www.w3.org/Graphics/SVG/1.1/DTD/svg11.dtd">
<!-- Generated by graphviz version 2.40.1 (20161225.0304)
 -->
<!-- Title: button.h Pages: 1 -->
<svg width="132pt" height="140pt"
 viewBox="0.00 0.00 131.50 140.00" xmlns="http://www.w3.org/2000/svg" xmlns:xlink="http://www.w3.org/1999/xlink">
<g id="graph0" class="graph" transform="scale(1 1) rotate(0) translate(4 136)">
<title>button.h</title>
<polygon fill="#ffffff" stroke="transparent" points="-4,4 -4,-136 127.5,-136 127.5,4 -4,4"/>
<!-- Node0 -->
<g id="node1" class="node">
<title>Node0</title>
<polygon fill="#bfbfbf" stroke="#000000" points="33.5,-112.5 33.5,-131.5 85.5,-131.5 85.5,-112.5 33.5,-112.5"/>
<text text-anchor="middle" x="59.5" y="-119.5" font-family="Helvetica,sans-Serif" font-size="10.00" fill="#000000">button.h</text>
</g>
<!-- Node1 -->
<g id="node2" class="node">
<title>Node1</title>
<g id="a_node2"><a xlink:href="gpio_8h.html" target="_top" xlink:title="gpio.h">
<polygon fill="#ffffff" stroke="#000000" points="38,-56.5 38,-75.5 81,-75.5 81,-56.5 38,-56.5"/>
<text text-anchor="middle" x="59.5" y="-63.5" font-family="Helvetica,sans-Serif" font-size="10.00" fill="#000000">gpio.h</text>
</a>
</g>
</g>
<!-- Node0&#45;&gt;Node1 -->
<g id="edge1" class="edge">
<title>Node0&#45;&gt;Node1</title>
<path fill="none" stroke="#191970" d="M59.5,-112.2455C59.5,-104.9382 59.5,-94.6944 59.5,-85.7046"/>
<polygon fill="#191970" stroke="#191970" points="63.0001,-85.6426 59.5,-75.6427 56.0001,-85.6427 63.0001,-85.6426"/>
</g>
<!-- Node2 -->
<g id="node3" class="node">
<title>Node2</title>
<polygon fill="#ffffff" stroke="#bfbfbf" points="0,-.5 0,-19.5 49,-19.5 49,-.5 0,-.5"/>
<text text-anchor="middle" x="24.5" y="-7.5" font-family="Helvetica,sans-Serif" font-size="10.00" fill="#000000">stdint.h</text>
</g>
<!-- Node1&#45;&gt;Node2 -->
<g id="edge2" class="edge">
<title>Node1&#45;&gt;Node2</title>
<path fill="none" stroke="#191970" d="M53.4035,-56.2455C48.5855,-48.5367 41.7249,-37.5598 35.8968,-28.2348"/>
<polygon fill="#191970" stroke="#191970" points="38.7947,-26.2677 30.5267,-19.6427 32.8587,-29.9777 38.7947,-26.2677"/>
</g>
<!-- Node3 -->
<g id="node4" class="node">
<title>Node3</title>
<polygon fill="#ffffff" stroke="#bfbfbf" points="67.5,-.5 67.5,-19.5 123.5,-19.5 123.5,-.5 67.5,-.5"/>
<text text-anchor="middle" x="95.5" y="-7.5" font-family="Helvetica,sans-Serif" font-size="10.00" fill="#000000">stdbool.h</text>
</g>
<!-- Node1&#45;&gt;Node3 -->
<g id="edge3" class="edge">
<title>Node1&#45;&gt;Node3</title>
<path fill="none" stroke="#191970" d="M65.7707,-56.2455C70.7264,-48.5367 77.783,-37.5598 83.7776,-28.2348"/>
<polygon fill="#191970" stroke="#191970" points="86.8376,-29.9471 89.3011,-19.6427 80.9494,-26.1618 86.8376,-29.9471"/>
</g>
</g>
</svg>
