<?xml version="1.0" encoding="UTF-8" standalone="no"?>
<!DOCTYPE svg PUBLIC "-//W3C//DTD SVG 1.1//EN"
 "http://www.w3.org/Graphics/SVG/1.1/DTD/svg11.dtd">
<!-- Generated by graphviz version 2.40.1 (20161225.0304)
 -->
<!-- Title: Button_FindHandler Pages: 1 -->
<svg width="296pt" height="28pt"
 viewBox="0.00 0.00 296.00 28.00" xmlns="http://www.w3.org/2000/svg" xmlns:xlink="http://www.w3.org/1999/xlink">
<g id="graph0" class="graph" transform="scale(1 1) rotate(0) translate(4 24)">
<title>Button_FindHandler</title>
<polygon fill="#ffffff" stroke="transparent" points="-4,4 -4,-24 292,-24 292,4 -4,4"/>
<!-- Node1 -->
<g id="node1" class="node">
<title>Node1</title>
<polygon fill="#bfbfbf" stroke="#000000" points="0,-.5 0,-19.5 103,-19.5 103,-.5 0,-.5"/>
<text text-anchor="middle" x="51.5" y="-7.5" font-family="Helvetica,sans-Serif" font-size="10.00" fill="#000000">Button_FindHandler</text>
</g>
<!-- Node2 -->
<g id="node2" class="node">
<title>Node2</title>
<g id="a_node2"><a xlink:href="event__mgr_8h.html#a42ad370315e4f32152824e38167216d3" target="_top" xlink:title="EventMgrInit">
<polygon fill="#ffffff" stroke="#000000" points="139,-.5 139,-19.5 211,-19.5 211,-.5 139,-.5"/>
<text text-anchor="middle" x="175" y="-7.5" font-family="Helvetica,sans-Serif" font-size="10.00" fill="#000000">EventMgrInit</text>
</a>
</g>
</g>
<!-- Node1&#45;&gt;Node2 -->
<g id="edge1" class="edge">
<title>Node1&#45;&gt;Node2</title>
<path fill="none" stroke="#191970" d="M113.3922,-10C122.1433,-10 130.8906,-10 138.9311,-10"/>
<polygon fill="#191970" stroke="#191970" points="113.1596,-6.5001 103.1595,-10 113.1595,-13.5001 113.1596,-6.5001"/>
</g>
<!-- Node3 -->
<g id="node3" class="node">
<title>Node3</title>
<g id="a_node3"><a xlink:href="sketch__aug19a_8ino.html#a4fc01d736fe50cf5b977f755b675f11d" target="_top" xlink:title="setup">
<polygon fill="#ffffff" stroke="#000000" points="247,-.5 247,-19.5 288,-19.5 288,-.5 247,-.5"/>
<text text-anchor="middle" x="267.5" y="-7.5" font-family="Helvetica,sans-Serif" font-size="10.00" fill="#000000">setup</text>
</a>
</g>
</g>
<!-- Node2&#45;&gt;Node3 -->
<g id="edge2" class="edge">
<title>Node2&#45;&gt;Node3</title>
<path fill="none" stroke="#191970" d="M221.1641,-10C230.209,-10 239.2583,-10 246.9282,-10"/>
<polygon fill="#191970" stroke="#191970" points="221.0278,-6.5001 211.0278,-10 221.0277,-13.5001 221.0278,-6.5001"/>
</g>
</g>
</svg>
