<?xml version="1.0" encoding="UTF-8" standalone="no"?>
<!DOCTYPE svg PUBLIC "-//W3C//DTD SVG 1.1//EN"
 "http://www.w3.org/Graphics/SVG/1.1/DTD/svg11.dtd">
<!-- Generated by graphviz version 2.40.1 (20161225.0304)
 -->
<!-- Title: button.cpp Pages: 1 -->
<svg width="228pt" height="196pt"
 viewBox="0.00 0.00 228.00 196.00" xmlns="http://www.w3.org/2000/svg" xmlns:xlink="http://www.w3.org/1999/xlink">
<g id="graph0" class="graph" transform="scale(1 1) rotate(0) translate(4 192)">
<title>button.cpp</title>
<polygon fill="#ffffff" stroke="transparent" points="-4,4 -4,-192 224,-192 224,4 -4,4"/>
<!-- Node0 -->
<g id="node1" class="node">
<title>Node0</title>
<polygon fill="#bfbfbf" stroke="#000000" points="56.5,-168.5 56.5,-187.5 118.5,-187.5 118.5,-168.5 56.5,-168.5"/>
<text text-anchor="middle" x="87.5" y="-175.5" font-family="Helvetica,sans-Serif" font-size="10.00" fill="#000000">button.cpp</text>
</g>
<!-- Node1 -->
<g id="node2" class="node">
<title>Node1</title>
<g id="a_node2"><a xlink:href="gpio_8h.html" target="_top" xlink:title="gpio.h">
<polygon fill="#ffffff" stroke="#000000" points="38,-56.5 38,-75.5 81,-75.5 81,-56.5 38,-56.5"/>
<text text-anchor="middle" x="59.5" y="-63.5" font-family="Helvetica,sans-Serif" font-size="10.00" fill="#000000">gpio.h</text>
</a>
</g>
</g>
<!-- Node0&#45;&gt;Node1 -->
<g id="edge1" class="edge">
<title>Node0&#45;&gt;Node1</title>
<path fill="none" stroke="#191970" d="M59.0619,-168.3621C42.5721,-161.1374 23.201,-149.4529 13.5,-132 3.5036,-114.0156 20.246,-94.8732 36.263,-81.8614"/>
<polygon fill="#191970" stroke="#191970" points="38.5849,-84.4929 44.4273,-75.6546 34.3484,-78.9205 38.5849,-84.4929"/>
</g>
<!-- Node4 -->
<g id="node5" class="node">
<title>Node4</title>
<polygon fill="#ffffff" stroke="#bfbfbf" points="22.5,-112.5 22.5,-131.5 80.5,-131.5 80.5,-112.5 22.5,-112.5"/>
<text text-anchor="middle" x="51.5" y="-119.5" font-family="Helvetica,sans-Serif" font-size="10.00" fill="#000000">Arduino.h</text>
</g>
<!-- Node0&#45;&gt;Node4 -->
<g id="edge4" class="edge">
<title>Node0&#45;&gt;Node4</title>
<path fill="none" stroke="#191970" d="M81.2293,-168.2455C76.2736,-160.5367 69.217,-149.5598 63.2224,-140.2348"/>
<polygon fill="#191970" stroke="#191970" points="66.0506,-138.1618 57.6989,-131.6427 60.1624,-141.9471 66.0506,-138.1618"/>
</g>
<!-- Node5 -->
<g id="node6" class="node">
<title>Node5</title>
<g id="a_node6"><a xlink:href="button_8h.html" target="_top" xlink:title="button.h">
<polygon fill="#ffffff" stroke="#000000" points="98.5,-112.5 98.5,-131.5 150.5,-131.5 150.5,-112.5 98.5,-112.5"/>
<text text-anchor="middle" x="124.5" y="-119.5" font-family="Helvetica,sans-Serif" font-size="10.00" fill="#000000">button.h</text>
</a>
</g>
</g>
<!-- Node0&#45;&gt;Node5 -->
<g id="edge5" class="edge">
<title>Node0&#45;&gt;Node5</title>
<path fill="none" stroke="#191970" d="M93.9449,-168.2455C99.0382,-160.5367 106.2908,-149.5598 112.452,-140.2348"/>
<polygon fill="#191970" stroke="#191970" points="115.5365,-141.9155 118.1289,-131.6427 109.6962,-138.0566 115.5365,-141.9155"/>
</g>
<!-- Node6 -->
<g id="node7" class="node">
<title>Node6</title>
<g id="a_node7"><a xlink:href="logger_8h.html" target="_top" xlink:title="logger.h">
<polygon fill="#ffffff" stroke="#000000" points="169,-112.5 169,-131.5 220,-131.5 220,-112.5 169,-112.5"/>
<text text-anchor="middle" x="194.5" y="-119.5" font-family="Helvetica,sans-Serif" font-size="10.00" fill="#000000">logger.h</text>
</a>
</g>
</g>
<!-- Node0&#45;&gt;Node6 -->
<g id="edge7" class="edge">
<title>Node0&#45;&gt;Node6</title>
<path fill="none" stroke="#191970" d="M106.138,-168.2455C122.9386,-159.4527 147.8634,-146.4079 166.9618,-136.4125"/>
<polygon fill="#191970" stroke="#191970" points="168.8386,-139.3807 176.0756,-131.6427 165.5927,-133.1787 168.8386,-139.3807"/>
</g>
<!-- Node2 -->
<g id="node3" class="node">
<title>Node2</title>
<polygon fill="#ffffff" stroke="#bfbfbf" points="0,-.5 0,-19.5 49,-19.5 49,-.5 0,-.5"/>
<text text-anchor="middle" x="24.5" y="-7.5" font-family="Helvetica,sans-Serif" font-size="10.00" fill="#000000">stdint.h</text>
</g>
<!-- Node1&#45;&gt;Node2 -->
<g id="edge2" class="edge">
<title>Node1&#45;&gt;Node2</title>
<path fill="none" stroke="#191970" d="M53.4035,-56.2455C48.5855,-48.5367 41.7249,-37.5598 35.8968,-28.2348"/>
<polygon fill="#191970" stroke="#191970" points="38.7947,-26.2677 30.5267,-19.6427 32.8587,-29.9777 38.7947,-26.2677"/>
</g>
<!-- Node3 -->
<g id="node4" class="node">
<title>Node3</title>
<polygon fill="#ffffff" stroke="#bfbfbf" points="67.5,-.5 67.5,-19.5 123.5,-19.5 123.5,-.5 67.5,-.5"/>
<text text-anchor="middle" x="95.5" y="-7.5" font-family="Helvetica,sans-Serif" font-size="10.00" fill="#000000">stdbool.h</text>
</g>
<!-- Node1&#45;&gt;Node3 -->
<g id="edge3" class="edge">
<title>Node1&#45;&gt;Node3</title>
<path fill="none" stroke="#191970" d="M65.7707,-56.2455C70.7264,-48.5367 77.783,-37.5598 83.7776,-28.2348"/>
<polygon fill="#191970" stroke="#191970" points="86.8376,-29.9471 89.3011,-19.6427 80.9494,-26.1618 86.8376,-29.9471"/>
</g>
<!-- Node5&#45;&gt;Node1 -->
<g id="edge6" class="edge">
<title>Node5&#45;&gt;Node1</title>
<path fill="none" stroke="#191970" d="M113.1779,-112.2455C103.5777,-103.9746 89.6108,-91.9416 78.3305,-82.2232"/>
<polygon fill="#191970" stroke="#191970" points="80.553,-79.5182 70.6924,-75.6427 75.984,-84.8214 80.553,-79.5182"/>
</g>
</g>
</svg>
