<?xml version="1.0" encoding="UTF-8" standalone="no"?>
<!DOCTYPE svg PUBLIC "-//W3C//DTD SVG 1.1//EN"
 "http://www.w3.org/Graphics/SVG/1.1/DTD/svg11.dtd">
<!-- Generated by graphviz version 2.40.1 (20161225.0304)
 -->
<!-- Title: EventMgrInit Pages: 1 -->
<svg width="219pt" height="66pt"
 viewBox="0.00 0.00 219.00 66.00" xmlns="http://www.w3.org/2000/svg" xmlns:xlink="http://www.w3.org/1999/xlink">
<g id="graph0" class="graph" transform="scale(1 1) rotate(0) translate(4 62)">
<title>EventMgrInit</title>
<polygon fill="#ffffff" stroke="transparent" points="-4,4 -4,-62 215,-62 215,4 -4,4"/>
<!-- Node3 -->
<g id="node1" class="node">
<title>Node3</title>
<polygon fill="#bfbfbf" stroke="#000000" points="0,-19.5 0,-38.5 72,-38.5 72,-19.5 0,-19.5"/>
<text text-anchor="middle" x="36" y="-26.5" font-family="Helvetica,sans-Serif" font-size="10.00" fill="#000000">EventMgrInit</text>
</g>
<!-- Node4 -->
<g id="node2" class="node">
<title>Node4</title>
<g id="a_node2"><a xlink:href="button_8cpp.html#a8e88f6fba75b14911dfdbf0645b2f99d" target="_top" xlink:title="Button_FindHandler">
<polygon fill="#ffffff" stroke="#000000" points="108,-38.5 108,-57.5 211,-57.5 211,-38.5 108,-38.5"/>
<text text-anchor="middle" x="159.5" y="-45.5" font-family="Helvetica,sans-Serif" font-size="10.00" fill="#000000">Button_FindHandler</text>
</a>
</g>
</g>
<!-- Node3&#45;&gt;Node4 -->
<g id="edge1" class="edge">
<title>Node3&#45;&gt;Node4</title>
<path fill="none" stroke="#191970" d="M72.0533,-34.5467C80.0362,-35.7748 88.7165,-37.1102 97.4059,-38.4471"/>
<polygon fill="#191970" stroke="#191970" points="97.1535,-41.9493 107.5695,-40.0107 98.218,-35.0307 97.1535,-41.9493"/>
</g>
<!-- Node5 -->
<g id="node3" class="node">
<title>Node5</title>
<g id="a_node3"><a xlink:href="timer_8cpp.html#a8466e0406ba9fd7cc0827d6c4ebdf1d1" target="_top" xlink:title="Timer_FindHandler">
<polygon fill="#ffffff" stroke="#000000" points="110,-.5 110,-19.5 209,-19.5 209,-.5 110,-.5"/>
<text text-anchor="middle" x="159.5" y="-7.5" font-family="Helvetica,sans-Serif" font-size="10.00" fill="#000000">Timer_FindHandler</text>
</a>
</g>
</g>
<!-- Node3&#45;&gt;Node5 -->
<g id="edge2" class="edge">
<title>Node3&#45;&gt;Node5</title>
<path fill="none" stroke="#191970" d="M72.0533,-23.4533C80.7326,-22.1181 90.2363,-20.656 99.6798,-19.2031"/>
<polygon fill="#191970" stroke="#191970" points="100.5099,-22.6167 109.8614,-17.6367 99.4454,-15.6981 100.5099,-22.6167"/>
</g>
</g>
</svg>
