<?xml version="1.0" encoding="UTF-8" standalone="no"?>
<!DOCTYPE svg PUBLIC "-//W3C//DTD SVG 1.1//EN"
 "http://www.w3.org/Graphics/SVG/1.1/DTD/svg11.dtd">
<!-- Generated by graphviz version 2.40.1 (20161225.0304)
 -->
<!-- Title: event_mgr.h Pages: 1 -->
<svg width="142pt" height="140pt"
 viewBox="0.00 0.00 141.50 140.00" xmlns="http://www.w3.org/2000/svg" xmlns:xlink="http://www.w3.org/1999/xlink">
<g id="graph0" class="graph" transform="scale(1 1) rotate(0) translate(4 136)">
<title>event_mgr.h</title>
<polygon fill="#ffffff" stroke="transparent" points="-4,4 -4,-136 137.5,-136 137.5,4 -4,4"/>
<!-- Node0 -->
<g id="node1" class="node">
<title>Node0</title>
<polygon fill="#bfbfbf" stroke="#000000" points="25,-112.5 25,-131.5 96,-131.5 96,-112.5 25,-112.5"/>
<text text-anchor="middle" x="60.5" y="-119.5" font-family="Helvetica,sans-Serif" font-size="10.00" fill="#000000">event_mgr.h</text>
</g>
<!-- Node1 -->
<g id="node2" class="node">
<title>Node1</title>
<polygon fill="#ffffff" stroke="#bfbfbf" points="0,-.5 0,-19.5 49,-19.5 49,-.5 0,-.5"/>
<text text-anchor="middle" x="24.5" y="-7.5" font-family="Helvetica,sans-Serif" font-size="10.00" fill="#000000">stdint.h</text>
</g>
<!-- Node0&#45;&gt;Node1 -->
<g id="edge1" class="edge">
<title>Node0&#45;&gt;Node1</title>
<path fill="none" stroke="#191970" d="M49.3498,-112.3293C40.4329,-103.8007 28.6079,-90.5 23.5,-76 18.2647,-61.1381 18.9417,-43.2011 20.6903,-29.7797"/>
<polygon fill="#191970" stroke="#191970" points="24.1735,-30.1632 22.3048,-19.7344 17.2622,-29.0523 24.1735,-30.1632"/>
</g>
<!-- Node2 -->
<g id="node3" class="node">
<title>Node2</title>
<polygon fill="#ffffff" stroke="#bfbfbf" points="77.5,-.5 77.5,-19.5 133.5,-19.5 133.5,-.5 77.5,-.5"/>
<text text-anchor="middle" x="105.5" y="-7.5" font-family="Helvetica,sans-Serif" font-size="10.00" fill="#000000">stdbool.h</text>
</g>
<!-- Node0&#45;&gt;Node2 -->
<g id="edge2" class="edge">
<title>Node0&#45;&gt;Node2</title>
<path fill="none" stroke="#191970" d="M71.2055,-112.1574C79.851,-103.5239 91.5274,-90.1658 97.5,-76 103.6657,-61.3761 105.516,-43.4214 105.9078,-29.9327"/>
<polygon fill="#191970" stroke="#191970" points="109.4082,-29.8405 105.9567,-19.8237 102.4083,-29.8066 109.4082,-29.8405"/>
</g>
<!-- Node3 -->
<g id="node4" class="node">
<title>Node3</title>
<g id="a_node4"><a xlink:href="actions_8h.html" target="_top" xlink:title="actions.h">
<polygon fill="#ffffff" stroke="#000000" points="32.5,-56.5 32.5,-75.5 88.5,-75.5 88.5,-56.5 32.5,-56.5"/>
<text text-anchor="middle" x="60.5" y="-63.5" font-family="Helvetica,sans-Serif" font-size="10.00" fill="#000000">actions.h</text>
</a>
</g>
</g>
<!-- Node0&#45;&gt;Node3 -->
<g id="edge3" class="edge">
<title>Node0&#45;&gt;Node3</title>
<path fill="none" stroke="#191970" d="M60.5,-112.2455C60.5,-104.9382 60.5,-94.6944 60.5,-85.7046"/>
<polygon fill="#191970" stroke="#191970" points="64.0001,-85.6426 60.5,-75.6427 57.0001,-85.6427 64.0001,-85.6426"/>
</g>
<!-- Node3&#45;&gt;Node1 -->
<g id="edge4" class="edge">
<title>Node3&#45;&gt;Node1</title>
<path fill="none" stroke="#191970" d="M54.2293,-56.2455C49.2736,-48.5367 42.217,-37.5598 36.2224,-28.2348"/>
<polygon fill="#191970" stroke="#191970" points="39.0506,-26.1618 30.6989,-19.6427 33.1624,-29.9471 39.0506,-26.1618"/>
</g>
<!-- Node3&#45;&gt;Node2 -->
<g id="edge5" class="edge">
<title>Node3&#45;&gt;Node2</title>
<path fill="none" stroke="#191970" d="M68.3384,-56.2455C74.662,-48.3761 83.7224,-37.101 91.3136,-27.6542"/>
<polygon fill="#191970" stroke="#191970" points="94.2158,-29.6302 97.7514,-19.6427 88.7592,-25.2454 94.2158,-29.6302"/>
</g>
</g>
</svg>
