<?xml version="1.0" encoding="UTF-8" standalone="no"?>
<!DOCTYPE svg PUBLIC "-//W3C//DTD SVG 1.1//EN"
 "http://www.w3.org/Graphics/SVG/1.1/DTD/svg11.dtd">
<!-- Generated by graphviz version 2.40.1 (20161225.0304)
 -->
<!-- Title: event_mgr.h Pages: 1 -->
<svg width="206pt" height="84pt"
 viewBox="0.00 0.00 205.50 84.00" xmlns="http://www.w3.org/2000/svg" xmlns:xlink="http://www.w3.org/1999/xlink">
<g id="graph0" class="graph" transform="scale(1 1) rotate(0) translate(4 80)">
<title>event_mgr.h</title>
<polygon fill="#ffffff" stroke="transparent" points="-4,4 -4,-80 201.5,-80 201.5,4 -4,4"/>
<!-- Node4 -->
<g id="node1" class="node">
<title>Node4</title>
<polygon fill="#bfbfbf" stroke="#000000" points="59,-56.5 59,-75.5 130,-75.5 130,-56.5 59,-56.5"/>
<text text-anchor="middle" x="94.5" y="-63.5" font-family="Helvetica,sans-Serif" font-size="10.00" fill="#000000">event_mgr.h</text>
</g>
<!-- Node5 -->
<g id="node2" class="node">
<title>Node5</title>
<g id="a_node2"><a xlink:href="event__mgr_8cpp.html" target="_top" xlink:title="event_mgr.cpp">
<polygon fill="#ffffff" stroke="#000000" points="0,-.5 0,-19.5 81,-19.5 81,-.5 0,-.5"/>
<text text-anchor="middle" x="40.5" y="-7.5" font-family="Helvetica,sans-Serif" font-size="10.00" fill="#000000">event_mgr.cpp</text>
</a>
</g>
</g>
<!-- Node4&#45;&gt;Node5 -->
<g id="edge1" class="edge">
<title>Node4&#45;&gt;Node5</title>
<path fill="none" stroke="#191970" d="M77.9031,-48.7884C68.6653,-39.2085 57.5096,-27.6396 49.7983,-19.6427"/>
<polygon fill="#191970" stroke="#191970" points="75.6331,-51.4766 85.0939,-56.2455 80.672,-46.6176 75.6331,-51.4766"/>
</g>
<!-- Node6 -->
<g id="node3" class="node">
<title>Node6</title>
<g id="a_node3"><a xlink:href="sketch__aug19a_8ino.html" target="_top" xlink:title="sketch_aug19a.ino">
<polygon fill="#ffffff" stroke="#000000" points="99.5,-.5 99.5,-19.5 197.5,-19.5 197.5,-.5 99.5,-.5"/>
<text text-anchor="middle" x="148.5" y="-7.5" font-family="Helvetica,sans-Serif" font-size="10.00" fill="#000000">sketch_aug19a.ino</text>
</a>
</g>
</g>
<!-- Node4&#45;&gt;Node6 -->
<g id="edge2" class="edge">
<title>Node4&#45;&gt;Node6</title>
<path fill="none" stroke="#191970" d="M111.0969,-48.7884C120.3347,-39.2085 131.4904,-27.6396 139.2017,-19.6427"/>
<polygon fill="#191970" stroke="#191970" points="108.328,-46.6176 103.9061,-56.2455 113.3669,-51.4766 108.328,-46.6176"/>
</g>
</g>
</svg>
