<?xml version="1.0" encoding="UTF-8" standalone="no"?>
<!DOCTYPE svg PUBLIC "-//W3C//DTD SVG 1.1//EN"
 "http://www.w3.org/Graphics/SVG/1.1/DTD/svg11.dtd">
<!-- Generated by graphviz version 2.40.1 (20161225.0304)
 -->
<!-- Title: event_mgr.cpp Pages: 1 -->
<svg width="371pt" height="196pt"
 viewBox="0.00 0.00 370.50 196.00" xmlns="http://www.w3.org/2000/svg" xmlns:xlink="http://www.w3.org/1999/xlink">
<g id="graph0" class="graph" transform="scale(1 1) rotate(0) translate(4 192)">
<title>event_mgr.cpp</title>
<polygon fill="#ffffff" stroke="transparent" points="-4,4 -4,-192 366.5,-192 366.5,4 -4,4"/>
<!-- Node0 -->
<g id="node1" class="node">
<title>Node0</title>
<polygon fill="#bfbfbf" stroke="#000000" points="134.5,-168.5 134.5,-187.5 215.5,-187.5 215.5,-168.5 134.5,-168.5"/>
<text text-anchor="middle" x="175" y="-175.5" font-family="Helvetica,sans-Serif" font-size="10.00" fill="#000000">event_mgr.cpp</text>
</g>
<!-- Node1 -->
<g id="node2" class="node">
<title>Node1</title>
<polygon fill="#ffffff" stroke="#bfbfbf" points="0,-112.5 0,-131.5 58,-131.5 58,-112.5 0,-112.5"/>
<text text-anchor="middle" x="29" y="-119.5" font-family="Helvetica,sans-Serif" font-size="10.00" fill="#000000">Arduino.h</text>
</g>
<!-- Node0&#45;&gt;Node1 -->
<g id="edge1" class="edge">
<title>Node0&#45;&gt;Node1</title>
<path fill="none" stroke="#191970" d="M149.9017,-168.3733C126.0445,-159.2226 89.9665,-145.3844 63.429,-135.2057"/>
<polygon fill="#191970" stroke="#191970" points="64.361,-131.8145 53.7708,-131.5011 61.8541,-138.3503 64.361,-131.8145"/>
</g>
<!-- Node2 -->
<g id="node3" class="node">
<title>Node2</title>
<g id="a_node3"><a xlink:href="event__mgr_8h.html" target="_top" xlink:title="event_mgr.h">
<polygon fill="#ffffff" stroke="#000000" points="222.5,-112.5 222.5,-131.5 293.5,-131.5 293.5,-112.5 222.5,-112.5"/>
<text text-anchor="middle" x="258" y="-119.5" font-family="Helvetica,sans-Serif" font-size="10.00" fill="#000000">event_mgr.h</text>
</a>
</g>
</g>
<!-- Node0&#45;&gt;Node2 -->
<g id="edge2" class="edge">
<title>Node0&#45;&gt;Node2</title>
<path fill="none" stroke="#191970" d="M189.4575,-168.2455C202.0732,-159.7337 220.5944,-147.2375 235.2045,-137.3801"/>
<polygon fill="#191970" stroke="#191970" points="237.3761,-140.1371 243.7082,-131.6427 233.4609,-134.3343 237.3761,-140.1371"/>
</g>
<!-- Node5 -->
<g id="node6" class="node">
<title>Node5</title>
<g id="a_node6"><a xlink:href="actions_8h.html" target="_top" xlink:title="actions.h">
<polygon fill="#ffffff" stroke="#000000" points="186,-56.5 186,-75.5 242,-75.5 242,-56.5 186,-56.5"/>
<text text-anchor="middle" x="214" y="-63.5" font-family="Helvetica,sans-Serif" font-size="10.00" fill="#000000">actions.h</text>
</a>
</g>
</g>
<!-- Node0&#45;&gt;Node5 -->
<g id="edge15" class="edge">
<title>Node0&#45;&gt;Node5</title>
<path fill="none" stroke="#191970" d="M178.3251,-168.4509C184.7435,-150.0186 198.9483,-109.2254 207.369,-85.043"/>
<polygon fill="#191970" stroke="#191970" points="210.7001,-86.1197 210.6833,-75.5249 204.0894,-83.8177 210.7001,-86.1197"/>
</g>
<!-- Node6 -->
<g id="node7" class="node">
<title>Node6</title>
<g id="a_node7"><a xlink:href="button_8h.html" target="_top" xlink:title="button.h">
<polygon fill="#ffffff" stroke="#000000" points="76,-112.5 76,-131.5 128,-131.5 128,-112.5 76,-112.5"/>
<text text-anchor="middle" x="102" y="-119.5" font-family="Helvetica,sans-Serif" font-size="10.00" fill="#000000">button.h</text>
</a>
</g>
</g>
<!-- Node0&#45;&gt;Node6 -->
<g id="edge8" class="edge">
<title>Node0&#45;&gt;Node6</title>
<path fill="none" stroke="#191970" d="M162.2844,-168.2455C151.398,-159.8943 135.5117,-147.7076 122.78,-137.9408"/>
<polygon fill="#191970" stroke="#191970" points="124.6346,-134.9523 114.5699,-131.6427 120.3739,-140.5063 124.6346,-134.9523"/>
</g>
<!-- Node8 -->
<g id="node9" class="node">
<title>Node8</title>
<g id="a_node9"><a xlink:href="timer_8h.html" target="_top" xlink:title="timer.h">
<polygon fill="#ffffff" stroke="#000000" points="120.5,-56.5 120.5,-75.5 167.5,-75.5 167.5,-56.5 120.5,-56.5"/>
<text text-anchor="middle" x="144" y="-63.5" font-family="Helvetica,sans-Serif" font-size="10.00" fill="#000000">timer.h</text>
</a>
</g>
</g>
<!-- Node0&#45;&gt;Node8 -->
<g id="edge12" class="edge">
<title>Node0&#45;&gt;Node8</title>
<path fill="none" stroke="#191970" d="M172.357,-168.4509C167.278,-150.1013 156.0653,-109.5908 149.3612,-85.3693"/>
<polygon fill="#191970" stroke="#191970" points="152.6772,-84.2289 146.6364,-75.5249 145.9308,-86.0962 152.6772,-84.2289"/>
</g>
<!-- Node9 -->
<g id="node10" class="node">
<title>Node9</title>
<g id="a_node10"><a xlink:href="logger_8h.html" target="_top" xlink:title="logger.h">
<polygon fill="#ffffff" stroke="#000000" points="311.5,-112.5 311.5,-131.5 362.5,-131.5 362.5,-112.5 311.5,-112.5"/>
<text text-anchor="middle" x="337" y="-119.5" font-family="Helvetica,sans-Serif" font-size="10.00" fill="#000000">logger.h</text>
</a>
</g>
</g>
<!-- Node0&#45;&gt;Node9 -->
<g id="edge16" class="edge">
<title>Node0&#45;&gt;Node9</title>
<path fill="none" stroke="#191970" d="M202.8488,-168.3733C230.2393,-158.9049 272.1475,-144.4182 301.8247,-134.1594"/>
<polygon fill="#191970" stroke="#191970" points="303.0739,-137.4308 311.3816,-130.8557 300.7869,-130.815 303.0739,-137.4308"/>
</g>
<!-- Node3 -->
<g id="node4" class="node">
<title>Node3</title>
<polygon fill="#ffffff" stroke="#bfbfbf" points="189.5,-.5 189.5,-19.5 238.5,-19.5 238.5,-.5 189.5,-.5"/>
<text text-anchor="middle" x="214" y="-7.5" font-family="Helvetica,sans-Serif" font-size="10.00" fill="#000000">stdint.h</text>
</g>
<!-- Node2&#45;&gt;Node3 -->
<g id="edge3" class="edge">
<title>Node2&#45;&gt;Node3</title>
<path fill="none" stroke="#191970" d="M267.0451,-112.2812C278.1427,-99.1181 294.2908,-75.0764 284,-56 276.2587,-41.6497 261.8703,-31.0456 248.1424,-23.659"/>
<polygon fill="#191970" stroke="#191970" points="249.3489,-20.3509 238.8339,-19.0527 246.2443,-26.6248 249.3489,-20.3509"/>
</g>
<!-- Node4 -->
<g id="node5" class="node">
<title>Node4</title>
<polygon fill="#ffffff" stroke="#bfbfbf" points="115,-.5 115,-19.5 171,-19.5 171,-.5 115,-.5"/>
<text text-anchor="middle" x="143" y="-7.5" font-family="Helvetica,sans-Serif" font-size="10.00" fill="#000000">stdbool.h</text>
</g>
<!-- Node2&#45;&gt;Node4 -->
<g id="edge4" class="edge">
<title>Node2&#45;&gt;Node4</title>
<path fill="none" stroke="#191970" d="M259.7768,-112.4118C261.7844,-98.5298 263.3347,-72.6743 251,-56 242.1755,-44.0709 208.4464,-30.8293 181.0001,-21.6281"/>
<polygon fill="#191970" stroke="#191970" points="181.823,-18.2148 171.2304,-18.4308 179.6458,-24.8676 181.823,-18.2148"/>
</g>
<!-- Node2&#45;&gt;Node5 -->
<g id="edge5" class="edge">
<title>Node2&#45;&gt;Node5</title>
<path fill="none" stroke="#191970" d="M250.3358,-112.2455C244.1527,-104.3761 235.2937,-93.101 227.8711,-83.6542"/>
<polygon fill="#191970" stroke="#191970" points="230.5068,-81.3435 221.5764,-75.6427 225.0025,-85.6683 230.5068,-81.3435"/>
</g>
<!-- Node5&#45;&gt;Node3 -->
<g id="edge6" class="edge">
<title>Node5&#45;&gt;Node3</title>
<path fill="none" stroke="#191970" d="M214,-56.2455C214,-48.9382 214,-38.6944 214,-29.7046"/>
<polygon fill="#191970" stroke="#191970" points="217.5001,-29.6426 214,-19.6427 210.5001,-29.6427 217.5001,-29.6426"/>
</g>
<!-- Node5&#45;&gt;Node4 -->
<g id="edge7" class="edge">
<title>Node5&#45;&gt;Node4</title>
<path fill="none" stroke="#191970" d="M201.6327,-56.2455C191.0446,-47.8943 175.5936,-35.7076 163.2107,-25.9408"/>
<polygon fill="#191970" stroke="#191970" points="165.2447,-23.0875 155.2255,-19.6427 160.9097,-28.5837 165.2447,-23.0875"/>
</g>
<!-- Node7 -->
<g id="node8" class="node">
<title>Node7</title>
<g id="a_node8"><a xlink:href="gpio_8h.html" target="_top" xlink:title="gpio.h">
<polygon fill="#ffffff" stroke="#000000" points="59.5,-56.5 59.5,-75.5 102.5,-75.5 102.5,-56.5 59.5,-56.5"/>
<text text-anchor="middle" x="81" y="-63.5" font-family="Helvetica,sans-Serif" font-size="10.00" fill="#000000">gpio.h</text>
</a>
</g>
</g>
<!-- Node6&#45;&gt;Node7 -->
<g id="edge9" class="edge">
<title>Node6&#45;&gt;Node7</title>
<path fill="none" stroke="#191970" d="M98.3421,-112.2455C95.5416,-104.7776 91.591,-94.2427 88.1676,-85.1137"/>
<polygon fill="#191970" stroke="#191970" points="91.4045,-83.777 84.616,-75.6427 84.8501,-86.2349 91.4045,-83.777"/>
</g>
<!-- Node7&#45;&gt;Node3 -->
<g id="edge10" class="edge">
<title>Node7&#45;&gt;Node3</title>
<path fill="none" stroke="#191970" d="M102.6648,-56.878C124.1087,-47.849 157.1955,-33.9177 181.7328,-23.5862"/>
<polygon fill="#191970" stroke="#191970" points="183.147,-26.7884 191.0051,-19.682 180.4306,-20.3369 183.147,-26.7884"/>
</g>
<!-- Node7&#45;&gt;Node4 -->
<g id="edge11" class="edge">
<title>Node7&#45;&gt;Node4</title>
<path fill="none" stroke="#191970" d="M91.7996,-56.2455C100.8678,-48.0549 114.0206,-36.1749 124.7245,-26.5069"/>
<polygon fill="#191970" stroke="#191970" points="127.2491,-28.9429 132.3242,-19.6427 122.5571,-23.7482 127.2491,-28.9429"/>
</g>
<!-- Node8&#45;&gt;Node3 -->
<g id="edge13" class="edge">
<title>Node8&#45;&gt;Node3</title>
<path fill="none" stroke="#191970" d="M156.1931,-56.2455C166.6321,-47.8943 181.8655,-35.7076 194.074,-25.9408"/>
<polygon fill="#191970" stroke="#191970" points="196.3244,-28.6227 201.9467,-19.6427 191.9515,-23.1566 196.3244,-28.6227"/>
</g>
<!-- Node8&#45;&gt;Node4 -->
<g id="edge14" class="edge">
<title>Node8&#45;&gt;Node4</title>
<path fill="none" stroke="#191970" d="M143.8258,-56.2455C143.6953,-48.9382 143.5124,-38.6944 143.3519,-29.7046"/>
<polygon fill="#191970" stroke="#191970" points="146.8503,-29.5786 143.1722,-19.6427 139.8514,-29.7036 146.8503,-29.5786"/>
</g>
</g>
</svg>
