<?xml version="1.0" encoding="UTF-8" standalone="no"?>
<!DOCTYPE svg PUBLIC "-//W3C//DTD SVG 1.1//EN"
 "http://www.w3.org/Graphics/SVG/1.1/DTD/svg11.dtd">
<!-- Generated by graphviz version 2.40.1 (20161225.0304)
 -->
<!-- Title: gpio.h Pages: 1 -->
<svg width="315pt" height="140pt"
 viewBox="0.00 0.00 314.50 140.00" xmlns="http://www.w3.org/2000/svg" xmlns:xlink="http://www.w3.org/1999/xlink">
<g id="graph0" class="graph" transform="scale(1 1) rotate(0) translate(4 136)">
<title>gpio.h</title>
<polygon fill="#ffffff" stroke="transparent" points="-4,4 -4,-136 310.5,-136 310.5,4 -4,4"/>
<!-- Node3 -->
<g id="node1" class="node">
<title>Node3</title>
<polygon fill="#bfbfbf" stroke="#000000" points="128,-112.5 128,-131.5 171,-131.5 171,-112.5 128,-112.5"/>
<text text-anchor="middle" x="149.5" y="-119.5" font-family="Helvetica,sans-Serif" font-size="10.00" fill="#000000">gpio.h</text>
</g>
<!-- Node4 -->
<g id="node2" class="node">
<title>Node4</title>
<g id="a_node2"><a xlink:href="actions_8cpp.html" target="_top" xlink:title="actions.cpp">
<polygon fill="#ffffff" stroke="#000000" points="0,-56.5 0,-75.5 67,-75.5 67,-56.5 0,-56.5"/>
<text text-anchor="middle" x="33.5" y="-63.5" font-family="Helvetica,sans-Serif" font-size="10.00" fill="#000000">actions.cpp</text>
</a>
</g>
</g>
<!-- Node3&#45;&gt;Node4 -->
<g id="edge1" class="edge">
<title>Node3&#45;&gt;Node4</title>
<path fill="none" stroke="#191970" d="M120.4463,-107.9741C99.4435,-97.8348 71.6309,-84.408 53.1809,-75.5011"/>
<polygon fill="#191970" stroke="#191970" points="119.0317,-111.1776 129.5589,-112.3733 122.075,-104.8738 119.0317,-111.1776"/>
</g>
<!-- Node5 -->
<g id="node3" class="node">
<title>Node5</title>
<g id="a_node3"><a xlink:href="button_8cpp.html" target="_top" xlink:title="button.cpp">
<polygon fill="#ffffff" stroke="#000000" points="28.5,-.5 28.5,-19.5 90.5,-19.5 90.5,-.5 28.5,-.5"/>
<text text-anchor="middle" x="59.5" y="-7.5" font-family="Helvetica,sans-Serif" font-size="10.00" fill="#000000">button.cpp</text>
</a>
</g>
</g>
<!-- Node3&#45;&gt;Node5 -->
<g id="edge2" class="edge">
<title>Node3&#45;&gt;Node5</title>
<path fill="none" stroke="#191970" d="M135.4595,-104.5274C116.2071,-80.5688 82.2816,-38.3505 67.1539,-19.5249"/>
<polygon fill="#191970" stroke="#191970" points="132.8344,-106.8482 141.8267,-112.4509 138.291,-102.4635 132.8344,-106.8482"/>
</g>
<!-- Node6 -->
<g id="node4" class="node">
<title>Node6</title>
<g id="a_node4"><a xlink:href="button_8h.html" target="_top" xlink:title="button.h">
<polygon fill="#ffffff" stroke="#000000" points="123.5,-56.5 123.5,-75.5 175.5,-75.5 175.5,-56.5 123.5,-56.5"/>
<text text-anchor="middle" x="149.5" y="-63.5" font-family="Helvetica,sans-Serif" font-size="10.00" fill="#000000">button.h</text>
</a>
</g>
</g>
<!-- Node3&#45;&gt;Node6 -->
<g id="edge3" class="edge">
<title>Node3&#45;&gt;Node6</title>
<path fill="none" stroke="#191970" d="M149.5,-102.1575C149.5,-93.155 149.5,-82.9199 149.5,-75.6427"/>
<polygon fill="#191970" stroke="#191970" points="146.0001,-102.2455 149.5,-112.2455 153.0001,-102.2456 146.0001,-102.2455"/>
</g>
<!-- Node8 -->
<g id="node6" class="node">
<title>Node8</title>
<g id="a_node6"><a xlink:href="sketch__aug19a_8ino.html" target="_top" xlink:title="sketch_aug19a.ino">
<polygon fill="#ffffff" stroke="#000000" points="208.5,-.5 208.5,-19.5 306.5,-19.5 306.5,-.5 208.5,-.5"/>
<text text-anchor="middle" x="257.5" y="-7.5" font-family="Helvetica,sans-Serif" font-size="10.00" fill="#000000">sketch_aug19a.ino</text>
</a>
</g>
</g>
<!-- Node3&#45;&gt;Node8 -->
<g id="edge8" class="edge">
<title>Node3&#45;&gt;Node8</title>
<path fill="none" stroke="#191970" d="M165.7447,-105.1536C188.7356,-81.3113 230.0028,-38.5156 248.3153,-19.5249"/>
<polygon fill="#191970" stroke="#191970" points="163.1299,-102.823 158.708,-112.4509 168.1689,-107.682 163.1299,-102.823"/>
</g>
<!-- Node9 -->
<g id="node7" class="node">
<title>Node9</title>
<g id="a_node7"><a xlink:href="gpio_8cpp.html" target="_top" xlink:title="gpio.cpp">
<polygon fill="#ffffff" stroke="#000000" points="232,-56.5 232,-75.5 285,-75.5 285,-56.5 232,-56.5"/>
<text text-anchor="middle" x="258.5" y="-63.5" font-family="Helvetica,sans-Serif" font-size="10.00" fill="#000000">gpio.cpp</text>
</a>
</g>
</g>
<!-- Node3&#45;&gt;Node9 -->
<g id="edge7" class="edge">
<title>Node3&#45;&gt;Node9</title>
<path fill="none" stroke="#191970" d="M177.5342,-107.5971C197.0746,-97.558 222.6092,-84.4393 239.7312,-75.6427"/>
<polygon fill="#191970" stroke="#191970" points="175.7817,-104.5625 168.4864,-112.2455 178.9806,-110.7889 175.7817,-104.5625"/>
</g>
<!-- Node6&#45;&gt;Node5 -->
<g id="edge4" class="edge">
<title>Node6&#45;&gt;Node5</title>
<path fill="none" stroke="#191970" d="M125.0216,-50.769C109.0734,-40.8456 88.749,-28.1994 74.9972,-19.6427"/>
<polygon fill="#191970" stroke="#191970" points="123.4835,-53.9342 133.8232,-56.2455 127.1817,-47.9908 123.4835,-53.9342"/>
</g>
<!-- Node7 -->
<g id="node5" class="node">
<title>Node7</title>
<g id="a_node5"><a xlink:href="event__mgr_8cpp.html" target="_top" xlink:title="event_mgr.cpp">
<polygon fill="#ffffff" stroke="#000000" points="109,-.5 109,-19.5 190,-19.5 190,-.5 109,-.5"/>
<text text-anchor="middle" x="149.5" y="-7.5" font-family="Helvetica,sans-Serif" font-size="10.00" fill="#000000">event_mgr.cpp</text>
</a>
</g>
</g>
<!-- Node6&#45;&gt;Node7 -->
<g id="edge5" class="edge">
<title>Node6&#45;&gt;Node7</title>
<path fill="none" stroke="#191970" d="M149.5,-46.1575C149.5,-37.155 149.5,-26.9199 149.5,-19.6427"/>
<polygon fill="#191970" stroke="#191970" points="146.0001,-46.2455 149.5,-56.2455 153.0001,-46.2456 146.0001,-46.2455"/>
</g>
<!-- Node6&#45;&gt;Node8 -->
<g id="edge6" class="edge">
<title>Node6&#45;&gt;Node8</title>
<path fill="none" stroke="#191970" d="M177.2771,-51.5971C196.6382,-41.558 221.9385,-28.4393 238.9034,-19.6427"/>
<polygon fill="#191970" stroke="#191970" points="175.5786,-48.5352 168.3122,-56.2455 178.8008,-54.7495 175.5786,-48.5352"/>
</g>
</g>
</svg>
