<?xml version="1.0" encoding="UTF-8" standalone="no"?>
<!DOCTYPE svg PUBLIC "-//W3C//DTD SVG 1.1//EN"
 "http://www.w3.org/Graphics/SVG/1.1/DTD/svg11.dtd">
<!-- Generated by graphviz version 2.40.1 (20161225.0304)
 -->
<!-- Title: gpio.cpp Pages: 1 -->
<svg width="305pt" height="140pt"
 viewBox="0.00 0.00 305.00 140.00" xmlns="http://www.w3.org/2000/svg" xmlns:xlink="http://www.w3.org/1999/xlink">
<g id="graph0" class="graph" transform="scale(1 1) rotate(0) translate(4 136)">
<title>gpio.cpp</title>
<polygon fill="#ffffff" stroke="transparent" points="-4,4 -4,-136 301,-136 301,4 -4,4"/>
<!-- Node0 -->
<g id="node1" class="node">
<title>Node0</title>
<polygon fill="#bfbfbf" stroke="#000000" points="138,-112.5 138,-131.5 191,-131.5 191,-112.5 138,-112.5"/>
<text text-anchor="middle" x="164.5" y="-119.5" font-family="Helvetica,sans-Serif" font-size="10.00" fill="#000000">gpio.cpp</text>
</g>
<!-- Node1 -->
<g id="node2" class="node">
<title>Node1</title>
<g id="a_node2"><a xlink:href="gpio_8h.html" target="_top" xlink:title="gpio.h">
<polygon fill="#ffffff" stroke="#000000" points="38,-56.5 38,-75.5 81,-75.5 81,-56.5 38,-56.5"/>
<text text-anchor="middle" x="59.5" y="-63.5" font-family="Helvetica,sans-Serif" font-size="10.00" fill="#000000">gpio.h</text>
</a>
</g>
</g>
<!-- Node0&#45;&gt;Node1 -->
<g id="edge1" class="edge">
<title>Node0&#45;&gt;Node1</title>
<path fill="none" stroke="#191970" d="M146.2104,-112.2455C129.7238,-103.4527 105.2648,-90.4079 86.5235,-80.4125"/>
<polygon fill="#191970" stroke="#191970" points="88.0506,-77.2604 77.58,-75.6427 84.7565,-83.4368 88.0506,-77.2604"/>
</g>
<!-- Node4 -->
<g id="node5" class="node">
<title>Node4</title>
<polygon fill="#ffffff" stroke="#bfbfbf" points="99.5,-56.5 99.5,-75.5 157.5,-75.5 157.5,-56.5 99.5,-56.5"/>
<text text-anchor="middle" x="128.5" y="-63.5" font-family="Helvetica,sans-Serif" font-size="10.00" fill="#000000">Arduino.h</text>
</g>
<!-- Node0&#45;&gt;Node4 -->
<g id="edge4" class="edge">
<title>Node0&#45;&gt;Node4</title>
<path fill="none" stroke="#191970" d="M158.2293,-112.2455C153.2736,-104.5367 146.217,-93.5598 140.2224,-84.2348"/>
<polygon fill="#191970" stroke="#191970" points="143.0506,-82.1618 134.6989,-75.6427 137.1624,-85.9471 143.0506,-82.1618"/>
</g>
<!-- Node5 -->
<g id="node6" class="node">
<title>Node5</title>
<polygon fill="#ffffff" stroke="#bfbfbf" points="175.5,-56.5 175.5,-75.5 227.5,-75.5 227.5,-56.5 175.5,-56.5"/>
<text text-anchor="middle" x="201.5" y="-63.5" font-family="Helvetica,sans-Serif" font-size="10.00" fill="#000000">assert.h</text>
</g>
<!-- Node0&#45;&gt;Node5 -->
<g id="edge5" class="edge">
<title>Node0&#45;&gt;Node5</title>
<path fill="none" stroke="#191970" d="M170.9449,-112.2455C176.0382,-104.5367 183.2908,-93.5598 189.452,-84.2348"/>
<polygon fill="#191970" stroke="#191970" points="192.5365,-85.9155 195.1289,-75.6427 186.6962,-82.0566 192.5365,-85.9155"/>
</g>
<!-- Node6 -->
<g id="node7" class="node">
<title>Node6</title>
<g id="a_node7"><a xlink:href="logger_8h.html" target="_top" xlink:title="logger.h">
<polygon fill="#ffffff" stroke="#000000" points="246,-56.5 246,-75.5 297,-75.5 297,-56.5 246,-56.5"/>
<text text-anchor="middle" x="271.5" y="-63.5" font-family="Helvetica,sans-Serif" font-size="10.00" fill="#000000">logger.h</text>
</a>
</g>
</g>
<!-- Node0&#45;&gt;Node6 -->
<g id="edge6" class="edge">
<title>Node0&#45;&gt;Node6</title>
<path fill="none" stroke="#191970" d="M183.138,-112.2455C199.9386,-103.4527 224.8634,-90.4079 243.9618,-80.4125"/>
<polygon fill="#191970" stroke="#191970" points="245.8386,-83.3807 253.0756,-75.6427 242.5927,-77.1787 245.8386,-83.3807"/>
</g>
<!-- Node2 -->
<g id="node3" class="node">
<title>Node2</title>
<polygon fill="#ffffff" stroke="#bfbfbf" points="0,-.5 0,-19.5 49,-19.5 49,-.5 0,-.5"/>
<text text-anchor="middle" x="24.5" y="-7.5" font-family="Helvetica,sans-Serif" font-size="10.00" fill="#000000">stdint.h</text>
</g>
<!-- Node1&#45;&gt;Node2 -->
<g id="edge2" class="edge">
<title>Node1&#45;&gt;Node2</title>
<path fill="none" stroke="#191970" d="M53.4035,-56.2455C48.5855,-48.5367 41.7249,-37.5598 35.8968,-28.2348"/>
<polygon fill="#191970" stroke="#191970" points="38.7947,-26.2677 30.5267,-19.6427 32.8587,-29.9777 38.7947,-26.2677"/>
</g>
<!-- Node3 -->
<g id="node4" class="node">
<title>Node3</title>
<polygon fill="#ffffff" stroke="#bfbfbf" points="67.5,-.5 67.5,-19.5 123.5,-19.5 123.5,-.5 67.5,-.5"/>
<text text-anchor="middle" x="95.5" y="-7.5" font-family="Helvetica,sans-Serif" font-size="10.00" fill="#000000">stdbool.h</text>
</g>
<!-- Node1&#45;&gt;Node3 -->
<g id="edge3" class="edge">
<title>Node1&#45;&gt;Node3</title>
<path fill="none" stroke="#191970" d="M65.7707,-56.2455C70.7264,-48.5367 77.783,-37.5598 83.7776,-28.2348"/>
<polygon fill="#191970" stroke="#191970" points="86.8376,-29.9471 89.3011,-19.6427 80.9494,-26.1618 86.8376,-29.9471"/>
</g>
</g>
</svg>
