<?xml version="1.0" encoding="UTF-8" standalone="no"?>
<!DOCTYPE svg PUBLIC "-//W3C//DTD SVG 1.1//EN"
 "http://www.w3.org/Graphics/SVG/1.1/DTD/svg11.dtd">
<!-- Generated by graphviz version 2.40.1 (20161225.0304)
 -->
<!-- Title: Gpio_GetPinState Pages: 1 -->
<svg width="345pt" height="355pt"
 viewBox="0.00 0.00 345.00 354.50" xmlns="http://www.w3.org/2000/svg" xmlns:xlink="http://www.w3.org/1999/xlink">
<g id="graph0" class="graph" transform="scale(1 1) rotate(0) translate(4 350.5)">
<title>Gpio_GetPinState</title>
<polygon fill="#ffffff" stroke="transparent" points="-4,4 -4,-350.5 341,-350.5 341,4 -4,4"/>
<!-- Node1 -->
<g id="node1" class="node">
<title>Node1</title>
<polygon fill="#bfbfbf" stroke="#000000" points="0,-152.5 0,-171.5 95,-171.5 95,-152.5 0,-152.5"/>
<text text-anchor="middle" x="47.5" y="-159.5" font-family="Helvetica,sans-Serif" font-size="10.00" fill="#000000">Gpio_GetPinState</text>
</g>
<!-- Node2 -->
<g id="node2" class="node">
<title>Node2</title>
<g id="a_node2"><a xlink:href="actions_8h.html#a55a031819cd0eb2f7958b7645868ddf4" target="_top" xlink:title="Actions_toggleKitchenLed\lLight">
<polygon fill="#ffffff" stroke="#000000" points="133.5,-316 133.5,-346 263.5,-346 263.5,-316 133.5,-316"/>
<text text-anchor="start" x="141.5" y="-334" font-family="Helvetica,sans-Serif" font-size="10.00" fill="#000000">Actions_toggleKitchenLed</text>
<text text-anchor="middle" x="198.5" y="-323" font-family="Helvetica,sans-Serif" font-size="10.00" fill="#000000">Light</text>
</a>
</g>
</g>
<!-- Node1&#45;&gt;Node2 -->
<g id="edge1" class="edge">
<title>Node1&#45;&gt;Node2</title>
<path fill="none" stroke="#191970" d="M53.6512,-181.2482C64.4518,-212.0779 89.6852,-272.5552 131,-307 135.1078,-310.4247 139.74,-313.376 144.6046,-315.9164"/>
<polygon fill="#191970" stroke="#191970" points="56.9354,-180.0335 50.4301,-171.671 50.3006,-182.2651 56.9354,-180.0335"/>
</g>
<!-- Node3 -->
<g id="node3" class="node">
<title>Node3</title>
<g id="a_node3"><a xlink:href="actions_8h.html#a0085a36629f848165927e7e5cc195393" target="_top" xlink:title="Actions_toggleKitchenMain\lLight">
<polygon fill="#ffffff" stroke="#000000" points="131,-267 131,-297 266,-297 266,-267 131,-267"/>
<text text-anchor="start" x="139" y="-285" font-family="Helvetica,sans-Serif" font-size="10.00" fill="#000000">Actions_toggleKitchenMain</text>
<text text-anchor="middle" x="198.5" y="-274" font-family="Helvetica,sans-Serif" font-size="10.00" fill="#000000">Light</text>
</a>
</g>
</g>
<!-- Node1&#45;&gt;Node3 -->
<g id="edge2" class="edge">
<title>Node1&#45;&gt;Node3</title>
<path fill="none" stroke="#191970" d="M59.2826,-180.1776C73.8269,-201.3135 100.4201,-235.9793 131,-257 136.4581,-260.7519 142.5494,-264.0218 148.7777,-266.8485"/>
<polygon fill="#191970" stroke="#191970" points="62.121,-178.126 53.6435,-171.7713 56.3078,-182.0257 62.121,-178.126"/>
</g>
<!-- Node4 -->
<g id="node4" class="node">
<title>Node4</title>
<g id="a_node4"><a xlink:href="actions_8h.html#a3472a81cea4d8a348cce3dd1c684ec46" target="_top" xlink:title="Actions_toggleLed">
<polygon fill="#ffffff" stroke="#000000" points="150,-228.5 150,-247.5 247,-247.5 247,-228.5 150,-228.5"/>
<text text-anchor="middle" x="198.5" y="-235.5" font-family="Helvetica,sans-Serif" font-size="10.00" fill="#000000">Actions_toggleLed</text>
</a>
</g>
</g>
<!-- Node1&#45;&gt;Node4 -->
<g id="edge3" class="edge">
<title>Node1&#45;&gt;Node4</title>
<path fill="none" stroke="#191970" d="M67.0893,-178.0969C83.343,-190.7595 107.5152,-208.0389 131,-219 138.9429,-222.7072 147.7572,-225.832 156.3246,-228.4088"/>
<polygon fill="#191970" stroke="#191970" points="68.9339,-175.092 58.9288,-171.6065 64.5766,-180.5705 68.9339,-175.092"/>
</g>
<!-- Node5 -->
<g id="node5" class="node">
<title>Node5</title>
<g id="a_node5"><a xlink:href="actions_8h.html#a212249f53e1f4916f72e090a14820019" target="_top" xlink:title="Actions_toggleLivingLightA">
<polygon fill="#ffffff" stroke="#000000" points="131.5,-190.5 131.5,-209.5 265.5,-209.5 265.5,-190.5 131.5,-190.5"/>
<text text-anchor="middle" x="198.5" y="-197.5" font-family="Helvetica,sans-Serif" font-size="10.00" fill="#000000">Actions_toggleLivingLightA</text>
</a>
</g>
</g>
<!-- Node1&#45;&gt;Node5 -->
<g id="edge4" class="edge">
<title>Node1&#45;&gt;Node5</title>
<path fill="none" stroke="#191970" d="M95.3431,-174.04C116.4386,-179.3488 140.8766,-185.4988 160.6703,-190.4799"/>
<polygon fill="#191970" stroke="#191970" points="96.1555,-170.6354 85.6037,-171.589 94.4471,-177.4237 96.1555,-170.6354"/>
</g>
<!-- Node6 -->
<g id="node6" class="node">
<title>Node6</title>
<g id="a_node6"><a xlink:href="actions_8h.html#af20c09e08d26f491ade519a628558dbb" target="_top" xlink:title="Actions_toggleLivingLightB">
<polygon fill="#ffffff" stroke="#000000" points="131.5,-152.5 131.5,-171.5 265.5,-171.5 265.5,-152.5 131.5,-152.5"/>
<text text-anchor="middle" x="198.5" y="-159.5" font-family="Helvetica,sans-Serif" font-size="10.00" fill="#000000">Actions_toggleLivingLightB</text>
</a>
</g>
</g>
<!-- Node1&#45;&gt;Node6 -->
<g id="edge5" class="edge">
<title>Node1&#45;&gt;Node6</title>
<path fill="none" stroke="#191970" d="M105.4609,-162C113.9629,-162 122.779,-162 131.4448,-162"/>
<polygon fill="#191970" stroke="#191970" points="105.2774,-158.5001 95.2773,-162 105.2773,-165.5001 105.2774,-158.5001"/>
</g>
<!-- Node7 -->
<g id="node7" class="node">
<title>Node7</title>
<g id="a_node7"><a xlink:href="actions_8h.html#a26a2d0d165d28ce24020b9e0ec059b24" target="_top" xlink:title="Actions_toggleMainLight">
<polygon fill="#ffffff" stroke="#000000" points="137,-114.5 137,-133.5 260,-133.5 260,-114.5 137,-114.5"/>
<text text-anchor="middle" x="198.5" y="-121.5" font-family="Helvetica,sans-Serif" font-size="10.00" fill="#000000">Actions_toggleMainLight</text>
</a>
</g>
</g>
<!-- Node1&#45;&gt;Node7 -->
<g id="edge6" class="edge">
<title>Node1&#45;&gt;Node7</title>
<path fill="none" stroke="#191970" d="M95.3431,-149.96C116.4386,-144.6512 140.8766,-138.5012 160.6703,-133.5201"/>
<polygon fill="#191970" stroke="#191970" points="94.4471,-146.5763 85.6037,-152.411 96.1555,-153.3646 94.4471,-146.5763"/>
</g>
<!-- Node8 -->
<g id="node8" class="node">
<title>Node8</title>
<g id="a_node8"><a xlink:href="actions_8h.html#ad4ccbda4856e2d2bb35190fc54457170" target="_top" xlink:title="Actions_toggleWallLightA">
<polygon fill="#ffffff" stroke="#000000" points="134.5,-76.5 134.5,-95.5 262.5,-95.5 262.5,-76.5 134.5,-76.5"/>
<text text-anchor="middle" x="198.5" y="-83.5" font-family="Helvetica,sans-Serif" font-size="10.00" fill="#000000">Actions_toggleWallLightA</text>
</a>
</g>
</g>
<!-- Node1&#45;&gt;Node8 -->
<g id="edge7" class="edge">
<title>Node1&#45;&gt;Node8</title>
<path fill="none" stroke="#191970" d="M67.0893,-145.9031C83.343,-133.2405 107.5152,-115.9611 131,-105 138.9429,-101.2928 147.7572,-98.168 156.3246,-95.5912"/>
<polygon fill="#191970" stroke="#191970" points="64.5766,-143.4295 58.9288,-152.3935 68.9339,-148.908 64.5766,-143.4295"/>
</g>
<!-- Node9 -->
<g id="node9" class="node">
<title>Node9</title>
<g id="a_node9"><a xlink:href="actions_8h.html#a981adc253e3924d25669821767826aed" target="_top" xlink:title="Actions_toggleWallLightB">
<polygon fill="#ffffff" stroke="#000000" points="134.5,-38.5 134.5,-57.5 262.5,-57.5 262.5,-38.5 134.5,-38.5"/>
<text text-anchor="middle" x="198.5" y="-45.5" font-family="Helvetica,sans-Serif" font-size="10.00" fill="#000000">Actions_toggleWallLightB</text>
</a>
</g>
</g>
<!-- Node1&#45;&gt;Node9 -->
<g id="edge8" class="edge">
<title>Node1&#45;&gt;Node9</title>
<path fill="none" stroke="#191970" d="M58.779,-143.7232C72.9986,-122.2023 99.4389,-86.8778 131,-67 137.1808,-63.1072 144.1722,-59.9955 151.2547,-57.5125"/>
<polygon fill="#191970" stroke="#191970" points="55.746,-141.969 53.292,-152.2757 61.6378,-145.7489 55.746,-141.969"/>
</g>
<!-- Node10 -->
<g id="node10" class="node">
<title>Node10</title>
<g id="a_node10"><a xlink:href="button_8h.html#aa12143d552c51003980a13783c22a582" target="_top" xlink:title="buttonTask">
<polygon fill="#ffffff" stroke="#000000" points="166,-.5 166,-19.5 231,-19.5 231,-.5 166,-.5"/>
<text text-anchor="middle" x="198.5" y="-7.5" font-family="Helvetica,sans-Serif" font-size="10.00" fill="#000000">buttonTask</text>
</a>
</g>
</g>
<!-- Node1&#45;&gt;Node10 -->
<g id="edge9" class="edge">
<title>Node1&#45;&gt;Node10</title>
<path fill="none" stroke="#191970" d="M54.3296,-142.8131C65.6646,-113.7539 91.1414,-58.8178 131,-29 141.0407,-21.4887 153.9287,-16.9459 165.7474,-14.1988"/>
<polygon fill="#191970" stroke="#191970" points="51.0235,-141.6615 50.7929,-152.2538 57.5787,-144.1172 51.0235,-141.6615"/>
</g>
<!-- Node11 -->
<g id="node11" class="node">
<title>Node11</title>
<g id="a_node11"><a xlink:href="sketch__aug19a_8ino.html#afe461d27b9c48d5921c00d521181f12f" target="_top" xlink:title="loop">
<polygon fill="#ffffff" stroke="#000000" points="302,-.5 302,-19.5 337,-19.5 337,-.5 302,-.5"/>
<text text-anchor="middle" x="319.5" y="-7.5" font-family="Helvetica,sans-Serif" font-size="10.00" fill="#000000">loop</text>
</a>
</g>
</g>
<!-- Node10&#45;&gt;Node11 -->
<g id="edge10" class="edge">
<title>Node10&#45;&gt;Node11</title>
<path fill="none" stroke="#191970" d="M241.4402,-10C262.1693,-10 285.9096,-10 301.7131,-10"/>
<polygon fill="#191970" stroke="#191970" points="241.2444,-6.5001 231.2443,-10 241.2443,-13.5001 241.2444,-6.5001"/>
</g>
</g>
</svg>
