<?xml version="1.0" encoding="UTF-8" standalone="no"?>
<!DOCTYPE svg PUBLIC "-//W3C//DTD SVG 1.1//EN"
 "http://www.w3.org/Graphics/SVG/1.1/DTD/svg11.dtd">
<!-- Generated by graphviz version 2.40.1 (20161225.0304)
 -->
<!-- Title: Gpio_SetPinState Pages: 1 -->
<!--zoomable 1112 -->
<svg id="main" version="1.1" xmlns="http://www.w3.org/2000/svg" xmlns:xlink="http://www.w3.org/1999/xlink" xml:space="preserve" onload="init(evt)">
<style type="text/css"><![CDATA[
.edge:hover path { stroke: red; }
.edge:hover polygon { stroke: red; fill: red; }
]]></style>
<script type="text/javascript"><![CDATA[
var edges = document.getElementsByTagName('g');
if (edges && edges.length) {
  for (var i=0;i<edges.length;i++) {
    if (edges[i].id.substr(0,4)=='edge') {
      edges[i].setAttribute('class','edge');
    }
  }
}
]]></script>
        <defs>
                <circle id="rim" cx="0" cy="0" r="7"/>
                <circle id="rim2" cx="0" cy="0" r="3.5"/>
                <g id="zoomPlus">
                        <use xlink:href="#rim" fill="#404040">
                                <set attributeName="fill" to="#808080" begin="zoomplus.mouseover" end="zoomplus.mouseout"/>
                        </use>
                        <path d="M-4,0h8M0,-4v8" fill="none" stroke="white" stroke-width="1.5" pointer-events="none"/>
                </g>
                <g id="zoomMin">
                        <use xlink:href="#rim" fill="#404040">
                                <set attributeName="fill" to="#808080" begin="zoomminus.mouseover" end="zoomminus.mouseout"/>
                        </use>
                        <path d="M-4,0h8" fill="none" stroke="white" stroke-width="1.5" pointer-events="none"/>
                </g>
                <g id="dirArrow">
                        <path fill="none" stroke="white" stroke-width="1.5" d="M0,-3.0v7 M-2.5,-0.5L0,-3.0L2.5,-0.5"/>
                </g>
               <g id="resetDef">
                       <use xlink:href="#rim2" fill="#404040">
                               <set attributeName="fill" to="#808080" begin="reset.mouseover" end="reset.mouseout"/>
                       </use>
               </g>
        </defs>

<script type="text/javascript">
var viewWidth = 279;
var viewHeight = 1112;
var sectionId = 'dynsection-4';
</script>
<script xlink:href="svgpan.js"/>
<svg id="graph" class="graph">
<g id="viewport">
<title>Gpio_SetPinState</title>
<polygon fill="#ffffff" stroke="transparent" points="-4,4 -4,-1108 275,-1108 275,4 -4,4"/>
<!-- Node16 -->
<g id="node1" class="node">
<title>Node16</title>
<polygon fill="#bfbfbf" stroke="#000000" points="0,-539.5 0,-558.5 95,-558.5 95,-539.5 0,-539.5"/>
<text text-anchor="middle" x="47.5" y="-546.5" font-family="Helvetica,sans-Serif" font-size="10.00" fill="#000000">Gpio_SetPinState</text>
</g>
<!-- Node17 -->
<g id="node2" class="node">
<title>Node17</title>
<g id="a_node2"><a xlink:href="actions_8h.html#ae69f4e9ddc32b8ff60766bc6d13b8ed3" target="_top" xlink:title="Actions_disableAllLight">
<polygon fill="#ffffff" stroke="#000000" points="142,-1084.5 142,-1103.5 260,-1103.5 260,-1084.5 142,-1084.5"/>
<text text-anchor="middle" x="201" y="-1091.5" font-family="Helvetica,sans-Serif" font-size="10.00" fill="#000000">Actions_disableAllLight</text>
</a>
</g>
</g>
<!-- Node16&#45;&gt;Node17 -->
<g id="edge1" class="edge">
<title>Node16&#45;&gt;Node17</title>
<path fill="none" stroke="#191970" d="M47.865,-568.8653C49.8571,-655.3577 62.0523,-998.2028 131,-1075 134.4491,-1078.8418 138.5889,-1081.9404 143.1098,-1084.4352"/>
<polygon fill="#191970" stroke="#191970" points="51.359,-568.5384 47.6504,-558.6139 44.3605,-568.685 51.359,-568.5384"/>
</g>
<!-- Node18 -->
<g id="node3" class="node">
<title>Node18</title>
<g id="a_node3"><a xlink:href="actions_8h.html#a0ed0be7ba8fd3f17b41dbebe8517106c" target="_top" xlink:title="Actions_disableBedLight">
<polygon fill="#ffffff" stroke="#000000" points="139,-1046.5 139,-1065.5 263,-1065.5 263,-1046.5 139,-1046.5"/>
<text text-anchor="middle" x="201" y="-1053.5" font-family="Helvetica,sans-Serif" font-size="10.00" fill="#000000">Actions_disableBedLight</text>
</a>
</g>
</g>
<!-- Node16&#45;&gt;Node18 -->
<g id="edge2" class="edge">
<title>Node16&#45;&gt;Node18</title>
<path fill="none" stroke="#191970" d="M48.1297,-568.7388C51.1554,-651.1033 66.8198,-966.3726 131,-1037 134.4722,-1040.821 138.6277,-1043.9054 143.1585,-1046.3912"/>
<polygon fill="#191970" stroke="#191970" points="51.6266,-568.5852 47.7829,-558.7122 44.6308,-568.8273 51.6266,-568.5852"/>
</g>
<!-- Node19 -->
<g id="node4" class="node">
<title>Node19</title>
<g id="a_node4"><a xlink:href="actions_8h.html#a0a3719b7a9956a345c797a34ae527b11" target="_top" xlink:title="Actions_disableKitchAllLight">
<polygon fill="#ffffff" stroke="#000000" points="131,-1008.5 131,-1027.5 271,-1027.5 271,-1008.5 131,-1008.5"/>
<text text-anchor="middle" x="201" y="-1015.5" font-family="Helvetica,sans-Serif" font-size="10.00" fill="#000000">Actions_disableKitchAllLight</text>
</a>
</g>
</g>
<!-- Node16&#45;&gt;Node19 -->
<g id="edge3" class="edge">
<title>Node16&#45;&gt;Node19</title>
<path fill="none" stroke="#191970" d="M48.4641,-569.1694C52.6399,-648.076 71.7144,-934.6697 131,-999 134.4988,-1002.7966 138.6725,-1005.8644 143.215,-1008.3395"/>
<polygon fill="#191970" stroke="#191970" points="51.9362,-568.5279 47.9353,-558.7175 44.9451,-568.8816 51.9362,-568.5279"/>
</g>
<!-- Node20 -->
<g id="node5" class="node">
<title>Node20</title>
<g id="a_node5"><a xlink:href="actions_8h.html#a6a161e31c81f7fd103294e21ad5ba063" target="_top" xlink:title="Actions_disableKitchenLed\lLight">
<polygon fill="#ffffff" stroke="#000000" points="134,-959 134,-989 268,-989 268,-959 134,-959"/>
<text text-anchor="start" x="142" y="-977" font-family="Helvetica,sans-Serif" font-size="10.00" fill="#000000">Actions_disableKitchenLed</text>
<text text-anchor="middle" x="201" y="-966" font-family="Helvetica,sans-Serif" font-size="10.00" fill="#000000">Light</text>
</a>
</g>
</g>
<!-- Node16&#45;&gt;Node20 -->
<g id="edge4" class="edge">
<title>Node16&#45;&gt;Node20</title>
<path fill="none" stroke="#191970" d="M49.0878,-568.6512C55.295,-640.897 80.125,-890.6164 131,-949 134.3911,-952.8916 138.4315,-956.1775 142.8355,-958.9518"/>
<polygon fill="#191970" stroke="#191970" points="52.5716,-568.3101 48.2504,-558.6365 45.596,-568.8934 52.5716,-568.3101"/>
</g>
<!-- Node21 -->
<g id="node6" class="node">
<title>Node21</title>
<g id="a_node6"><a xlink:href="actions_8h.html#ac0d9793cc4d53d50bbc1f768eeaf8f7a" target="_top" xlink:title="Actions_disableLivingLight">
<polygon fill="#ffffff" stroke="#000000" points="135,-920.5 135,-939.5 267,-939.5 267,-920.5 135,-920.5"/>
<text text-anchor="middle" x="201" y="-927.5" font-family="Helvetica,sans-Serif" font-size="10.00" fill="#000000">Actions_disableLivingLight</text>
</a>
</g>
</g>
<!-- Node16&#45;&gt;Node21 -->
<g id="edge5" class="edge">
<title>Node16&#45;&gt;Node21</title>
<path fill="none" stroke="#191970" d="M49.4406,-569.0721C56.4599,-637.5946 82.6973,-860.8087 131,-911 134.6674,-914.8108 139.0156,-917.8826 143.7225,-920.3553"/>
<polygon fill="#191970" stroke="#191970" points="52.8909,-568.3992 48.4147,-558.7963 45.9255,-569.0946 52.8909,-568.3992"/>
</g>
<!-- Node22 -->
<g id="node7" class="node">
<title>Node22</title>
<g id="a_node7"><a xlink:href="actions_8h.html#a01ca615fce9a985dd15b5a67bbef844b" target="_top" xlink:title="Actions_disableLivingLightA">
<polygon fill="#ffffff" stroke="#000000" points="131.5,-882.5 131.5,-901.5 270.5,-901.5 270.5,-882.5 131.5,-882.5"/>
<text text-anchor="middle" x="201" y="-889.5" font-family="Helvetica,sans-Serif" font-size="10.00" fill="#000000">Actions_disableLivingLightA</text>
</a>
</g>
</g>
<!-- Node16&#45;&gt;Node22 -->
<g id="edge6" class="edge">
<title>Node16&#45;&gt;Node22</title>
<path fill="none" stroke="#191970" d="M50.0143,-568.9976C58.4042,-632.6311 87.3943,-828.8319 131,-873 134.8042,-876.8533 139.3054,-879.9481 144.1621,-882.4307"/>
<polygon fill="#191970" stroke="#191970" points="53.4398,-568.1949 48.6886,-558.7251 46.4974,-569.0909 53.4398,-568.1949"/>
</g>
<!-- Node23 -->
<g id="node8" class="node">
<title>Node23</title>
<g id="a_node8"><a xlink:href="actions_8h.html#a216b59109d60ea13a3a2c00281050fbc" target="_top" xlink:title="Actions_disableLivingLightB">
<polygon fill="#ffffff" stroke="#000000" points="131.5,-844.5 131.5,-863.5 270.5,-863.5 270.5,-844.5 131.5,-844.5"/>
<text text-anchor="middle" x="201" y="-851.5" font-family="Helvetica,sans-Serif" font-size="10.00" fill="#000000">Actions_disableLivingLightB</text>
</a>
</g>
</g>
<!-- Node16&#45;&gt;Node23 -->
<g id="edge7" class="edge">
<title>Node16&#45;&gt;Node23</title>
<path fill="none" stroke="#191970" d="M50.7311,-568.9138C60.5998,-627.3739 92.0591,-796.7928 131,-835 134.9549,-838.8804 139.6182,-841.9882 144.6296,-844.4744"/>
<polygon fill="#191970" stroke="#191970" points="54.1384,-568.0656 49.0495,-558.7729 47.2327,-569.2108 54.1384,-568.0656"/>
</g>
<!-- Node24 -->
<g id="node9" class="node">
<title>Node24</title>
<g id="a_node9"><a xlink:href="actions_8h.html#a0dbddede556d8186b9098a28ce775d24" target="_top" xlink:title="Actions_disableWallLight">
<polygon fill="#ffffff" stroke="#000000" points="138,-806.5 138,-825.5 264,-825.5 264,-806.5 138,-806.5"/>
<text text-anchor="middle" x="201" y="-813.5" font-family="Helvetica,sans-Serif" font-size="10.00" fill="#000000">Actions_disableWallLight</text>
</a>
</g>
</g>
<!-- Node16&#45;&gt;Node24 -->
<g id="edge8" class="edge">
<title>Node16&#45;&gt;Node24</title>
<path fill="none" stroke="#191970" d="M51.6188,-568.6557C63.0589,-621.4691 96.6485,-764.6413 131,-797 135.1248,-800.8855 139.9624,-803.992 145.1347,-806.4735"/>
<polygon fill="#191970" stroke="#191970" points="54.9764,-567.6186 49.4667,-558.569 48.1304,-569.0792 54.9764,-567.6186"/>
</g>
<!-- Node25 -->
<g id="node10" class="node">
<title>Node25</title>
<g id="a_node10"><a xlink:href="actions_8h.html#ad09c9f0392b7aaad5115a4b5a2bec32b" target="_top" xlink:title="Actions_disableWallLightA">
<polygon fill="#ffffff" stroke="#000000" points="134.5,-768.5 134.5,-787.5 267.5,-787.5 267.5,-768.5 134.5,-768.5"/>
<text text-anchor="middle" x="201" y="-775.5" font-family="Helvetica,sans-Serif" font-size="10.00" fill="#000000">Actions_disableWallLightA</text>
</a>
</g>
</g>
<!-- Node16&#45;&gt;Node25 -->
<g id="edge9" class="edge">
<title>Node16&#45;&gt;Node25</title>
<path fill="none" stroke="#191970" d="M49.5368,-568.8425C54.8925,-610.4894 73.2084,-707.4171 131,-759 135.3215,-762.8572 140.3501,-765.9417 145.6921,-768.4067"/>
<polygon fill="#191970" stroke="#191970" points="52.9826,-568.1728 48.3479,-558.6454 46.0297,-568.9835 52.9826,-568.1728"/>
</g>
<!-- Node26 -->
<g id="node11" class="node">
<title>Node26</title>
<g id="a_node11"><a xlink:href="actions_8h.html#ad2439ea1cbdd2313de242c681aed80a9" target="_top" xlink:title="Actions_disableWallLightB">
<polygon fill="#ffffff" stroke="#000000" points="134.5,-730.5 134.5,-749.5 267.5,-749.5 267.5,-730.5 134.5,-730.5"/>
<text text-anchor="middle" x="201" y="-737.5" font-family="Helvetica,sans-Serif" font-size="10.00" fill="#000000">Actions_disableWallLightB</text>
</a>
</g>
</g>
<!-- Node16&#45;&gt;Node26 -->
<g id="edge10" class="edge">
<title>Node16&#45;&gt;Node26</title>
<path fill="none" stroke="#191970" d="M51.4355,-568.6441C59.6587,-604.4775 82.1054,-680.4855 131,-721 135.6542,-724.8565 141.0241,-727.9348 146.6775,-730.3912"/>
<polygon fill="#191970" stroke="#191970" points="54.7809,-567.554 49.25,-558.5174 47.9385,-569.0308 54.7809,-567.554"/>
</g>
<!-- Node27 -->
<g id="node12" class="node">
<title>Node27</title>
<g id="a_node12"><a xlink:href="actions_8h.html#a7af39d1472c930f366dec89d5de401b3" target="_top" xlink:title="Actions_enableAllLight">
<polygon fill="#ffffff" stroke="#000000" points="143,-692.5 143,-711.5 259,-711.5 259,-692.5 143,-692.5"/>
<text text-anchor="middle" x="201" y="-699.5" font-family="Helvetica,sans-Serif" font-size="10.00" fill="#000000">Actions_enableAllLight</text>
</a>
</g>
</g>
<!-- Node16&#45;&gt;Node27 -->
<g id="edge11" class="edge">
<title>Node16&#45;&gt;Node27</title>
<path fill="none" stroke="#191970" d="M54.2545,-568.3763C65.49,-597.7138 90.8369,-653.141 131,-683 136.255,-686.9068 142.2633,-690.0103 148.5021,-692.4758"/>
<polygon fill="#191970" stroke="#191970" points="57.4862,-567.0234 50.7522,-558.8439 50.9156,-569.4375 57.4862,-567.0234"/>
</g>
<!-- Node28 -->
<g id="node13" class="node">
<title>Node28</title>
<g id="a_node13"><a xlink:href="actions_8h.html#a2463f4cb0df238551e488b4f8e691df7" target="_top" xlink:title="Actions_enableBedLight">
<polygon fill="#ffffff" stroke="#000000" points="140,-654.5 140,-673.5 262,-673.5 262,-654.5 140,-654.5"/>
<text text-anchor="middle" x="201" y="-661.5" font-family="Helvetica,sans-Serif" font-size="10.00" fill="#000000">Actions_enableBedLight</text>
</a>
</g>
</g>
<!-- Node16&#45;&gt;Node28 -->
<g id="edge12" class="edge">
<title>Node16&#45;&gt;Node28</title>
<path fill="none" stroke="#191970" d="M58.4845,-567.1882C72.5741,-588.9551 99.0466,-624.9676 131,-645 137.1881,-648.8795 144.1654,-651.9764 151.2566,-654.4461"/>
<polygon fill="#191970" stroke="#191970" points="61.3475,-565.1659 53.0653,-558.5586 55.4194,-568.8886 61.3475,-565.1659"/>
</g>
<!-- Node29 -->
<g id="node14" class="node">
<title>Node29</title>
<g id="a_node14"><a xlink:href="actions_8h.html#a5cf94ea6ee99fcd14e22f2cf65e75124" target="_top" xlink:title="Actions_enableKitchenAll\lLight">
<polygon fill="#ffffff" stroke="#000000" points="137,-605 137,-635 265,-635 265,-605 137,-605"/>
<text text-anchor="start" x="145" y="-623" font-family="Helvetica,sans-Serif" font-size="10.00" fill="#000000">Actions_enableKitchenAll</text>
<text text-anchor="middle" x="201" y="-612" font-family="Helvetica,sans-Serif" font-size="10.00" fill="#000000">Light</text>
</a>
</g>
</g>
<!-- Node16&#45;&gt;Node29 -->
<g id="edge13" class="edge">
<title>Node16&#45;&gt;Node29</title>
<path fill="none" stroke="#191970" d="M71.3397,-563.9612C87.722,-573.8538 110.1901,-586.6698 131,-596 138.0337,-599.1536 145.6156,-602.1473 153.1023,-604.8829"/>
<polygon fill="#191970" stroke="#191970" points="72.8121,-560.7588 62.4559,-558.5228 69.1574,-566.729 72.8121,-560.7588"/>
</g>
<!-- Node30 -->
<g id="node15" class="node">
<title>Node30</title>
<g id="a_node15"><a xlink:href="actions_8h.html#a5468ba8fe0aed80f27f1f53ef044f374" target="_top" xlink:title="Actions_enableKitchenLed\lLight">
<polygon fill="#ffffff" stroke="#000000" points="135,-556 135,-586 267,-586 267,-556 135,-556"/>
<text text-anchor="start" x="143" y="-574" font-family="Helvetica,sans-Serif" font-size="10.00" fill="#000000">Actions_enableKitchenLed</text>
<text text-anchor="middle" x="201" y="-563" font-family="Helvetica,sans-Serif" font-size="10.00" fill="#000000">Light</text>
</a>
</g>
</g>
<!-- Node16&#45;&gt;Node30 -->
<g id="edge14" class="edge">
<title>Node16&#45;&gt;Node30</title>
<path fill="none" stroke="#191970" d="M105.1758,-557.2662C114.9015,-558.6602 125.0636,-560.1166 134.9817,-561.5381"/>
<polygon fill="#191970" stroke="#191970" points="105.6224,-553.7946 95.2269,-555.8403 104.6292,-560.7238 105.6224,-553.7946"/>
</g>
<!-- Node31 -->
<g id="node16" class="node">
<title>Node31</title>
<g id="a_node16"><a xlink:href="actions_8h.html#a83c9c5ac7d9f1562d9ed578e2d29e4a9" target="_top" xlink:title="Actions_enableLivingLight">
<polygon fill="#ffffff" stroke="#000000" points="136,-517.5 136,-536.5 266,-536.5 266,-517.5 136,-517.5"/>
<text text-anchor="middle" x="201" y="-524.5" font-family="Helvetica,sans-Serif" font-size="10.00" fill="#000000">Actions_enableLivingLight</text>
</a>
</g>
</g>
<!-- Node16&#45;&gt;Node31 -->
<g id="edge15" class="edge">
<title>Node16&#45;&gt;Node31</title>
<path fill="none" stroke="#191970" d="M105.3885,-540.7033C115.3247,-539.2792 125.7106,-537.7907 135.8222,-536.3414"/>
<polygon fill="#191970" stroke="#191970" points="104.6292,-537.2762 95.2269,-542.1597 105.6224,-544.2054 104.6292,-537.2762"/>
</g>
<!-- Node32 -->
<g id="node17" class="node">
<title>Node32</title>
<g id="a_node17"><a xlink:href="actions_8h.html#a5300cefe2a598cb9bfedb228d7ea4ef5" target="_top" xlink:title="Actions_enableLivingLightA">
<polygon fill="#ffffff" stroke="#000000" points="132.5,-479.5 132.5,-498.5 269.5,-498.5 269.5,-479.5 132.5,-479.5"/>
<text text-anchor="middle" x="201" y="-486.5" font-family="Helvetica,sans-Serif" font-size="10.00" fill="#000000">Actions_enableLivingLightA</text>
</a>
</g>
</g>
<!-- Node16&#45;&gt;Node32 -->
<g id="edge16" class="edge">
<title>Node16&#45;&gt;Node32</title>
<path fill="none" stroke="#191970" d="M73.5347,-534.609C89.7253,-526.0676 111.1689,-515.4812 131,-508 140.4256,-504.4442 150.7961,-501.2553 160.6005,-498.5513"/>
<polygon fill="#191970" stroke="#191970" points="71.8228,-531.5554 64.6608,-539.3628 75.1284,-537.7258 71.8228,-531.5554"/>
</g>
<!-- Node33 -->
<g id="node18" class="node">
<title>Node33</title>
<g id="a_node18"><a xlink:href="actions_8h.html#a8e355420b1a82d34adcc3fe4c9ded34e" target="_top" xlink:title="Actions_enableLivingLightB">
<polygon fill="#ffffff" stroke="#000000" points="132.5,-441.5 132.5,-460.5 269.5,-460.5 269.5,-441.5 132.5,-441.5"/>
<text text-anchor="middle" x="201" y="-448.5" font-family="Helvetica,sans-Serif" font-size="10.00" fill="#000000">Actions_enableLivingLightB</text>
</a>
</g>
</g>
<!-- Node16&#45;&gt;Node33 -->
<g id="edge17" class="edge">
<title>Node16&#45;&gt;Node33</title>
<path fill="none" stroke="#191970" d="M61.4838,-531.4081C76.7225,-513.3974 102.7331,-485.8625 131,-470 137.8086,-466.1792 145.4251,-463.0947 153.0588,-460.6139"/>
<polygon fill="#191970" stroke="#191970" points="58.5635,-529.4483 54.9056,-539.3917 63.9659,-533.8997 58.5635,-529.4483"/>
</g>
<!-- Node34 -->
<g id="node19" class="node">
<title>Node34</title>
<g id="a_node19"><a xlink:href="actions_8h.html#a1306e931d4ce46bd6eb10beea172b80c" target="_top" xlink:title="Actions_enableWallLight">
<polygon fill="#ffffff" stroke="#000000" points="139,-403.5 139,-422.5 263,-422.5 263,-403.5 139,-403.5"/>
<text text-anchor="middle" x="201" y="-410.5" font-family="Helvetica,sans-Serif" font-size="10.00" fill="#000000">Actions_enableWallLight</text>
</a>
</g>
</g>
<!-- Node16&#45;&gt;Node34 -->
<g id="edge18" class="edge">
<title>Node16&#45;&gt;Node34</title>
<path fill="none" stroke="#191970" d="M55.8081,-530.2445C68.3174,-504.1989 94.4734,-457.4204 131,-432 136.5814,-428.1157 142.9227,-425.0247 149.4551,-422.5651"/>
<polygon fill="#191970" stroke="#191970" points="52.5841,-528.8775 51.5556,-539.4223 58.9354,-531.8204 52.5841,-528.8775"/>
</g>
<!-- Node35 -->
<g id="node20" class="node">
<title>Node35</title>
<g id="a_node20"><a xlink:href="actions_8h.html#a84e5dd5ddef0bc41629dda9e9f98a9ff" target="_top" xlink:title="Actions_enableWallLightA">
<polygon fill="#ffffff" stroke="#000000" points="135.5,-365.5 135.5,-384.5 266.5,-384.5 266.5,-365.5 135.5,-365.5"/>
<text text-anchor="middle" x="201" y="-372.5" font-family="Helvetica,sans-Serif" font-size="10.00" fill="#000000">Actions_enableWallLightA</text>
</a>
</g>
</g>
<!-- Node16&#45;&gt;Node35 -->
<g id="edge19" class="edge">
<title>Node16&#45;&gt;Node35</title>
<path fill="none" stroke="#191970" d="M52.5516,-529.4431C62.1134,-496.4092 86.043,-429.6798 131,-394 135.9318,-390.0859 141.6074,-386.976 147.5481,-384.5054"/>
<polygon fill="#191970" stroke="#191970" points="49.1287,-528.6903 49.8501,-539.2606 55.8779,-530.5476 49.1287,-528.6903"/>
</g>
<!-- Node36 -->
<g id="node21" class="node">
<title>Node36</title>
<g id="a_node21"><a xlink:href="actions_8h.html#a542352a4de55ef17cded516f0cb76361" target="_top" xlink:title="Actions_enableWallLightB">
<polygon fill="#ffffff" stroke="#000000" points="135.5,-327.5 135.5,-346.5 266.5,-346.5 266.5,-327.5 135.5,-327.5"/>
<text text-anchor="middle" x="201" y="-334.5" font-family="Helvetica,sans-Serif" font-size="10.00" fill="#000000">Actions_enableWallLightB</text>
</a>
</g>
</g>
<!-- Node16&#45;&gt;Node36 -->
<g id="edge20" class="edge">
<title>Node16&#45;&gt;Node36</title>
<path fill="none" stroke="#191970" d="M50.3202,-529.1502C56.9534,-489.9895 77.2484,-402.5533 131,-356 135.4738,-352.1253 140.6644,-349.0329 146.1577,-346.5662"/>
<polygon fill="#191970" stroke="#191970" points="46.828,-528.8286 48.7362,-539.2501 53.7434,-529.9132 46.828,-528.8286"/>
</g>
<!-- Node37 -->
<g id="node22" class="node">
<title>Node37</title>
<g id="a_node22"><a xlink:href="actions_8h.html#a55a031819cd0eb2f7958b7645868ddf4" target="_top" xlink:title="Actions_toggleKitchenLed\lLight">
<polygon fill="#ffffff" stroke="#000000" points="136,-278 136,-308 266,-308 266,-278 136,-278"/>
<text text-anchor="start" x="144" y="-296" font-family="Helvetica,sans-Serif" font-size="10.00" fill="#000000">Actions_toggleKitchenLed</text>
<text text-anchor="middle" x="201" y="-285" font-family="Helvetica,sans-Serif" font-size="10.00" fill="#000000">Light</text>
</a>
</g>
</g>
<!-- Node16&#45;&gt;Node37 -->
<g id="edge21" class="edge">
<title>Node16&#45;&gt;Node37</title>
<path fill="none" stroke="#191970" d="M49.0905,-529.0663C53.6648,-484.9214 70.6909,-378.0783 131,-318 134.8398,-314.1749 139.3038,-310.932 144.0839,-308.1832"/>
<polygon fill="#191970" stroke="#191970" points="45.5988,-528.8161 48.1587,-539.097 52.5688,-529.4637 45.5988,-528.8161"/>
</g>
<!-- Node38 -->
<g id="node23" class="node">
<title>Node38</title>
<g id="a_node23"><a xlink:href="actions_8h.html#a0085a36629f848165927e7e5cc195393" target="_top" xlink:title="Actions_toggleKitchenMain\lLight">
<polygon fill="#ffffff" stroke="#000000" points="133.5,-229 133.5,-259 268.5,-259 268.5,-229 133.5,-229"/>
<text text-anchor="start" x="141.5" y="-247" font-family="Helvetica,sans-Serif" font-size="10.00" fill="#000000">Actions_toggleKitchenMain</text>
<text text-anchor="middle" x="201" y="-236" font-family="Helvetica,sans-Serif" font-size="10.00" fill="#000000">Light</text>
</a>
</g>
</g>
<!-- Node16&#45;&gt;Node38 -->
<g id="edge22" class="edge">
<title>Node16&#45;&gt;Node38</title>
<path fill="none" stroke="#191970" d="M50.9291,-529.6358C61.3496,-472.7695 94.189,-307.8236 131,-269 134.6404,-265.1606 138.9102,-261.9097 143.5145,-259.1574"/>
<polygon fill="#191970" stroke="#191970" points="47.4809,-529.036 49.1494,-539.4986 54.3697,-530.2791 47.4809,-529.036"/>
</g>
<!-- Node39 -->
<g id="node24" class="node">
<title>Node39</title>
<g id="a_node24"><a xlink:href="actions_8h.html#a3472a81cea4d8a348cce3dd1c684ec46" target="_top" xlink:title="Actions_toggleLed">
<polygon fill="#ffffff" stroke="#000000" points="152.5,-190.5 152.5,-209.5 249.5,-209.5 249.5,-190.5 152.5,-190.5"/>
<text text-anchor="middle" x="201" y="-197.5" font-family="Helvetica,sans-Serif" font-size="10.00" fill="#000000">Actions_toggleLed</text>
</a>
</g>
</g>
<!-- Node16&#45;&gt;Node39 -->
<g id="edge23" class="edge">
<title>Node16&#45;&gt;Node39</title>
<path fill="none" stroke="#191970" d="M49.9391,-529.1454C58.1946,-465.0651 87.0473,-265.28 131,-220 136.8102,-214.0144 144.2772,-209.7858 152.1605,-206.806"/>
<polygon fill="#191970" stroke="#191970" points="46.4166,-529.1042 48.6383,-539.4635 53.3617,-529.9798 46.4166,-529.1042"/>
</g>
<!-- Node40 -->
<g id="node25" class="node">
<title>Node40</title>
<g id="a_node25"><a xlink:href="actions_8h.html#a212249f53e1f4916f72e090a14820019" target="_top" xlink:title="Actions_toggleLivingLightA">
<polygon fill="#ffffff" stroke="#000000" points="134,-152.5 134,-171.5 268,-171.5 268,-152.5 134,-152.5"/>
<text text-anchor="middle" x="201" y="-159.5" font-family="Helvetica,sans-Serif" font-size="10.00" fill="#000000">Actions_toggleLivingLightA</text>
</a>
</g>
</g>
<!-- Node16&#45;&gt;Node40 -->
<g id="edge24" class="edge">
<title>Node16&#45;&gt;Node40</title>
<path fill="none" stroke="#191970" d="M49.3468,-529.0536C56.1381,-459.9451 81.9209,-232.1808 131,-181 134.6606,-177.1827 139.0042,-174.1065 143.7082,-171.631"/>
<polygon fill="#191970" stroke="#191970" points="45.8263,-529.1018 48.358,-539.3897 52.7945,-529.7685 45.8263,-529.1018"/>
</g>
<!-- Node41 -->
<g id="node26" class="node">
<title>Node41</title>
<g id="a_node26"><a xlink:href="actions_8h.html#af20c09e08d26f491ade519a628558dbb" target="_top" xlink:title="Actions_toggleLivingLightB">
<polygon fill="#ffffff" stroke="#000000" points="134,-114.5 134,-133.5 268,-133.5 268,-114.5 134,-114.5"/>
<text text-anchor="middle" x="201" y="-121.5" font-family="Helvetica,sans-Serif" font-size="10.00" fill="#000000">Actions_toggleLivingLightB</text>
</a>
</g>
</g>
<!-- Node16&#45;&gt;Node41 -->
<g id="edge25" class="edge">
<title>Node16&#45;&gt;Node41</title>
<path fill="none" stroke="#191970" d="M48.8983,-528.9231C54.4365,-455.1319 77.2087,-200.246 131,-143 134.6217,-139.1457 138.9391,-136.0447 143.6266,-133.5536"/>
<polygon fill="#191970" stroke="#191970" points="45.389,-528.926 48.1553,-539.1533 52.3706,-529.4331 45.389,-528.926"/>
</g>
<!-- Node42 -->
<g id="node27" class="node">
<title>Node42</title>
<g id="a_node27"><a xlink:href="actions_8h.html#a26a2d0d165d28ce24020b9e0ec059b24" target="_top" xlink:title="Actions_toggleMainLight">
<polygon fill="#ffffff" stroke="#000000" points="139.5,-76.5 139.5,-95.5 262.5,-95.5 262.5,-76.5 139.5,-76.5"/>
<text text-anchor="middle" x="201" y="-83.5" font-family="Helvetica,sans-Serif" font-size="10.00" fill="#000000">Actions_toggleMainLight</text>
</a>
</g>
</g>
<!-- Node16&#45;&gt;Node42 -->
<g id="edge26" class="edge">
<title>Node16&#45;&gt;Node42</title>
<path fill="none" stroke="#191970" d="M48.5044,-529.0971C52.8321,-451.2332 72.4015,-168.4304 131,-105 134.5034,-101.2077 138.6802,-98.1427 143.2247,-95.6695"/>
<polygon fill="#191970" stroke="#191970" points="44.992,-529.2388 47.9552,-539.4108 51.9821,-529.6111 44.992,-529.2388"/>
</g>
<!-- Node43 -->
<g id="node28" class="node">
<title>Node43</title>
<g id="a_node28"><a xlink:href="actions_8h.html#ad4ccbda4856e2d2bb35190fc54457170" target="_top" xlink:title="Actions_toggleWallLightA">
<polygon fill="#ffffff" stroke="#000000" points="137,-38.5 137,-57.5 265,-57.5 265,-38.5 137,-38.5"/>
<text text-anchor="middle" x="201" y="-45.5" font-family="Helvetica,sans-Serif" font-size="10.00" fill="#000000">Actions_toggleWallLightA</text>
</a>
</g>
</g>
<!-- Node16&#45;&gt;Node43 -->
<g id="edge27" class="edge">
<title>Node16&#45;&gt;Node43</title>
<path fill="none" stroke="#191970" d="M48.186,-528.9997C51.4059,-446.8685 67.644,-136.5757 131,-67 134.4761,-63.1826 138.6343,-60.1007 143.1669,-57.6164"/>
<polygon fill="#191970" stroke="#191970" points="44.6732,-529.2836 47.8013,-539.4061 51.6684,-529.5423 44.6732,-529.2836"/>
</g>
<!-- Node44 -->
<g id="node29" class="node">
<title>Node44</title>
<g id="a_node29"><a xlink:href="actions_8h.html#a981adc253e3924d25669821767826aed" target="_top" xlink:title="Actions_toggleWallLightB">
<polygon fill="#ffffff" stroke="#000000" points="137,-.5 137,-19.5 265,-19.5 265,-.5 137,-.5"/>
<text text-anchor="middle" x="201" y="-7.5" font-family="Helvetica,sans-Serif" font-size="10.00" fill="#000000">Actions_toggleWallLightB</text>
</a>
</g>
</g>
<!-- Node16&#45;&gt;Node44 -->
<g id="edge28" class="edge">
<title>Node16&#45;&gt;Node44</title>
<path fill="none" stroke="#191970" d="M47.8993,-529.3594C50.0361,-443.8454 62.7515,-104.8819 131,-29 134.4525,-25.1613 138.5947,-22.0648 143.117,-19.5713"/>
<polygon fill="#191970" stroke="#191970" points="44.3972,-529.4173 47.6674,-539.4948 51.3953,-529.5775 44.3972,-529.4173"/>
</g>
</g>
</svg>
        <g id="navigator" transform="translate(0 0)" fill="#404254">
                <rect fill="#f2f5e9" fill-opacity="0.5" stroke="#606060" stroke-width=".5" x="0" y="0" width="60" height="60"/>
                <use id="zoomplus" xlink:href="#zoomPlus" x="17" y="9" onmousedown="handleZoom(evt,'in')"/>
                <use id="zoomminus" xlink:href="#zoomMin" x="42" y="9" onmousedown="handleZoom(evt,'out')"/>
                <use id="reset" xlink:href="#resetDef" x="30" y="36" onmousedown="handleReset()"/>
                <g id="arrowUp" xlink:href="#dirArrow" transform="translate(30 24)" onmousedown="handlePan(0,-1)">
                  <use xlink:href="#rim" fill="#404040">
                        <set attributeName="fill" to="#808080" begin="arrowUp.mouseover" end="arrowUp.mouseout"/>
                  </use>
                  <path fill="none" stroke="white" stroke-width="1.5" d="M0,-3.0v7 M-2.5,-0.5L0,-3.0L2.5,-0.5"/>
                </g>
                <g id="arrowRight" xlink:href="#dirArrow" transform="rotate(90) translate(36 -43)" onmousedown="handlePan(1,0)">
                  <use xlink:href="#rim" fill="#404040">
                        <set attributeName="fill" to="#808080" begin="arrowRight.mouseover" end="arrowRight.mouseout"/>
                  </use>
                  <path fill="none" stroke="white" stroke-width="1.5" d="M0,-3.0v7 M-2.5,-0.5L0,-3.0L2.5,-0.5"/>
                </g>
                <g id="arrowDown" xlink:href="#dirArrow" transform="rotate(180) translate(-30 -48)" onmousedown="handlePan(0,1)">
                  <use xlink:href="#rim" fill="#404040">
                        <set attributeName="fill" to="#808080" begin="arrowDown.mouseover" end="arrowDown.mouseout"/>
                  </use>
                  <path fill="none" stroke="white" stroke-width="1.5" d="M0,-3.0v7 M-2.5,-0.5L0,-3.0L2.5,-0.5"/>
                </g>
                <g id="arrowLeft" xlink:href="#dirArrow" transform="rotate(270) translate(-36 17)" onmousedown="handlePan(-1,0)">
                  <use xlink:href="#rim" fill="#404040">
                        <set attributeName="fill" to="#808080" begin="arrowLeft.mouseover" end="arrowLeft.mouseout"/>
                  </use>
                  <path fill="none" stroke="white" stroke-width="1.5" d="M0,-3.0v7 M-2.5,-0.5L0,-3.0L2.5,-0.5"/>
                </g>
        </g>
        <svg viewBox="0 0 15 15" width="100%" height="30px" preserveAspectRatio="xMaxYMin meet">
         <g id="arrow_out" transform="scale(0.3 0.3)">
          <a xlink:href="gpio_8h_a15f40150179c8a60447347a0f5c00bd7_icgraph_org.svg" target="_base">
           <rect id="button" ry="5" rx="5" y="6" x="6" height="38" width="38"
                fill="#f2f5e9" fill-opacity="0.5" stroke="#606060" stroke-width="1.0"/>
           <path id="arrow"
             d="M 11.500037,31.436501 C 11.940474,20.09759 22.043105,11.32322 32.158766,21.979434 L 37.068811,17.246167 C 37.068811,17.246167 37.088388,32 37.088388,32 L 22.160133,31.978069 C 22.160133,31.978069 26.997745,27.140456 26.997745,27.140456 C 18.528582,18.264221 13.291696,25.230495 11.500037,31.436501 z"
             style="fill:#404040;"/>
          </a>
         </g>
        </svg>
</svg>
