<?xml version="1.0" encoding="UTF-8" standalone="no"?>
<!DOCTYPE svg PUBLIC "-//W3C//DTD SVG 1.1//EN"
 "http://www.w3.org/Graphics/SVG/1.1/DTD/svg11.dtd">
<!-- Generated by graphviz version 2.40.1 (20161225.0304)
 -->
<!-- Title: logger.h Pages: 1 -->
<svg width="518pt" height="84pt"
 viewBox="0.00 0.00 518.00 84.00" xmlns="http://www.w3.org/2000/svg" xmlns:xlink="http://www.w3.org/1999/xlink">
<g id="graph0" class="graph" transform="scale(1 1) rotate(0) translate(4 80)">
<title>logger.h</title>
<polygon fill="#ffffff" stroke="transparent" points="-4,4 -4,-80 514,-80 514,4 -4,4"/>
<!-- Node1 -->
<g id="node1" class="node">
<title>Node1</title>
<polygon fill="#bfbfbf" stroke="#000000" points="223,-56.5 223,-75.5 274,-75.5 274,-56.5 223,-56.5"/>
<text text-anchor="middle" x="248.5" y="-63.5" font-family="Helvetica,sans-Serif" font-size="10.00" fill="#000000">logger.h</text>
</g>
<!-- Node2 -->
<g id="node2" class="node">
<title>Node2</title>
<g id="a_node2"><a xlink:href="actions_8cpp.html" target="_top" xlink:title="actions.cpp">
<polygon fill="#ffffff" stroke="#000000" points="0,-.5 0,-19.5 67,-19.5 67,-.5 0,-.5"/>
<text text-anchor="middle" x="33.5" y="-7.5" font-family="Helvetica,sans-Serif" font-size="10.00" fill="#000000">actions.cpp</text>
</a>
</g>
</g>
<!-- Node1&#45;&gt;Node2 -->
<g id="edge1" class="edge">
<title>Node1&#45;&gt;Node2</title>
<path fill="none" stroke="#191970" d="M213.2822,-56.827C172.8066,-46.2845 106.8594,-29.1076 67.0845,-18.7476"/>
<polygon fill="#191970" stroke="#191970" points="212.433,-60.2225 222.9924,-59.3562 214.1975,-53.4485 212.433,-60.2225"/>
</g>
<!-- Node3 -->
<g id="node3" class="node">
<title>Node3</title>
<g id="a_node3"><a xlink:href="button_8cpp.html" target="_top" xlink:title="button.cpp">
<polygon fill="#ffffff" stroke="#000000" points="85.5,-.5 85.5,-19.5 147.5,-19.5 147.5,-.5 85.5,-.5"/>
<text text-anchor="middle" x="116.5" y="-7.5" font-family="Helvetica,sans-Serif" font-size="10.00" fill="#000000">button.cpp</text>
</a>
</g>
</g>
<!-- Node1&#45;&gt;Node3 -->
<g id="edge2" class="edge">
<title>Node1&#45;&gt;Node3</title>
<path fill="none" stroke="#191970" d="M216.4035,-52.3833C192.3965,-42.1985 160.1741,-28.5284 138.8955,-19.5011"/>
<polygon fill="#191970" stroke="#191970" points="215.2356,-55.6897 225.8084,-56.3733 217.9695,-49.2457 215.2356,-55.6897"/>
</g>
<!-- Node4 -->
<g id="node4" class="node">
<title>Node4</title>
<g id="a_node4"><a xlink:href="event__mgr_8cpp.html" target="_top" xlink:title="event_mgr.cpp">
<polygon fill="#ffffff" stroke="#000000" points="166,-.5 166,-19.5 247,-19.5 247,-.5 166,-.5"/>
<text text-anchor="middle" x="206.5" y="-7.5" font-family="Helvetica,sans-Serif" font-size="10.00" fill="#000000">event_mgr.cpp</text>
</a>
</g>
</g>
<!-- Node1&#45;&gt;Node4 -->
<g id="edge3" class="edge">
<title>Node1&#45;&gt;Node4</title>
<path fill="none" stroke="#191970" d="M235.1584,-48.2112C228.0604,-38.7472 219.6097,-27.4797 213.732,-19.6427"/>
<polygon fill="#191970" stroke="#191970" points="232.3841,-50.3455 241.1842,-56.2455 237.9841,-46.1455 232.3841,-50.3455"/>
</g>
<!-- Node5 -->
<g id="node5" class="node">
<title>Node5</title>
<g id="a_node5"><a xlink:href="gpio_8cpp.html" target="_top" xlink:title="gpio.cpp">
<polygon fill="#ffffff" stroke="#000000" points="265,-.5 265,-19.5 318,-19.5 318,-.5 265,-.5"/>
<text text-anchor="middle" x="291.5" y="-7.5" font-family="Helvetica,sans-Serif" font-size="10.00" fill="#000000">gpio.cpp</text>
</a>
</g>
</g>
<!-- Node1&#45;&gt;Node5 -->
<g id="edge4" class="edge">
<title>Node1&#45;&gt;Node5</title>
<path fill="none" stroke="#191970" d="M262.1592,-48.2112C269.4263,-38.7472 278.0781,-27.4797 284.0958,-19.6427"/>
<polygon fill="#191970" stroke="#191970" points="259.3043,-46.1824 255.99,-56.2455 264.8564,-50.4456 259.3043,-46.1824"/>
</g>
<!-- Node6 -->
<g id="node6" class="node">
<title>Node6</title>
<g id="a_node6"><a xlink:href="sketch__aug19a_8ino.html" target="_top" xlink:title="sketch_aug19a.ino">
<polygon fill="#ffffff" stroke="#000000" points="336.5,-.5 336.5,-19.5 434.5,-19.5 434.5,-.5 336.5,-.5"/>
<text text-anchor="middle" x="385.5" y="-7.5" font-family="Helvetica,sans-Serif" font-size="10.00" fill="#000000">sketch_aug19a.ino</text>
</a>
</g>
</g>
<!-- Node1&#45;&gt;Node6 -->
<g id="edge5" class="edge">
<title>Node1&#45;&gt;Node6</title>
<path fill="none" stroke="#191970" d="M281.4806,-52.5189C306.4311,-42.3201 340.0734,-28.5685 362.2562,-19.5011"/>
<polygon fill="#191970" stroke="#191970" points="279.9834,-49.3497 272.0511,-56.3733 282.632,-55.8293 279.9834,-49.3497"/>
</g>
<!-- Node7 -->
<g id="node7" class="node">
<title>Node7</title>
<g id="a_node7"><a xlink:href="timer_8cpp.html" target="_top" xlink:title="timer.cpp">
<polygon fill="#ffffff" stroke="#000000" points="453,-.5 453,-19.5 510,-19.5 510,-.5 453,-.5"/>
<text text-anchor="middle" x="481.5" y="-7.5" font-family="Helvetica,sans-Serif" font-size="10.00" fill="#000000">timer.cpp</text>
</a>
</g>
</g>
<!-- Node1&#45;&gt;Node7 -->
<g id="edge6" class="edge">
<title>Node1&#45;&gt;Node7</title>
<path fill="none" stroke="#191970" d="M283.9529,-57.9246C323.0806,-48.9451 387.8901,-33.8738 443.5,-20 446.5447,-19.2404 449.7222,-18.4309 452.8863,-17.614"/>
<polygon fill="#191970" stroke="#191970" points="283.0696,-54.5362 274.1035,-60.1807 284.6326,-61.3595 283.0696,-54.5362"/>
</g>
</g>
</svg>
