<?xml version="1.0" encoding="UTF-8" standalone="no"?>
<!DOCTYPE svg PUBLIC "-//W3C//DTD SVG 1.1//EN"
 "http://www.w3.org/Graphics/SVG/1.1/DTD/svg11.dtd">
<!-- Generated by graphviz version 2.40.1 (20161225.0304)
 -->
<!-- Title: setup Pages: 1 -->
<svg width="296pt" height="123pt"
 viewBox="0.00 0.00 296.00 123.00" xmlns="http://www.w3.org/2000/svg" xmlns:xlink="http://www.w3.org/1999/xlink">
<g id="graph0" class="graph" transform="scale(1 1) rotate(0) translate(4 119)">
<title>setup</title>
<polygon fill="#ffffff" stroke="transparent" points="-4,4 -4,-119 292,-119 292,4 -4,4"/>
<!-- Node6 -->
<g id="node1" class="node">
<title>Node6</title>
<polygon fill="#bfbfbf" stroke="#000000" points="0,-38.5 0,-57.5 41,-57.5 41,-38.5 0,-38.5"/>
<text text-anchor="middle" x="20.5" y="-45.5" font-family="Helvetica,sans-Serif" font-size="10.00" fill="#000000">setup</text>
</g>
<!-- Node7 -->
<g id="node2" class="node">
<title>Node7</title>
<g id="a_node2"><a xlink:href="event__mgr_8cpp.html#a42ad370315e4f32152824e38167216d3" target="_top" xlink:title="EventMgrInit">
<polygon fill="#ffffff" stroke="#000000" points="77,-76.5 77,-95.5 149,-95.5 149,-76.5 77,-76.5"/>
<text text-anchor="middle" x="113" y="-83.5" font-family="Helvetica,sans-Serif" font-size="10.00" fill="#000000">EventMgrInit</text>
</a>
</g>
</g>
<!-- Node6&#45;&gt;Node7 -->
<g id="edge1" class="edge">
<title>Node6&#45;&gt;Node7</title>
<path fill="none" stroke="#191970" d="M41.0287,-56.4334C52.4805,-61.1379 67.017,-67.1097 80.0234,-72.4529"/>
<polygon fill="#191970" stroke="#191970" points="79.0149,-75.8224 89.5948,-76.3849 81.675,-69.3474 79.0149,-75.8224"/>
</g>
<!-- Node10 -->
<g id="node5" class="node">
<title>Node10</title>
<g id="a_node5"><a xlink:href="gpio_8cpp.html#aec6c2e01969e7a086f7dc11853dad378" target="_top" xlink:title="Initialize gpio unit. ">
<polygon fill="#ffffff" stroke="#000000" points="85,-38.5 85,-57.5 141,-57.5 141,-38.5 85,-38.5"/>
<text text-anchor="middle" x="113" y="-45.5" font-family="Helvetica,sans-Serif" font-size="10.00" fill="#000000">Gpio_Init</text>
</a>
</g>
</g>
<!-- Node6&#45;&gt;Node10 -->
<g id="edge4" class="edge">
<title>Node6&#45;&gt;Node10</title>
<path fill="none" stroke="#191970" d="M41.0287,-48C50.8904,-48 63.0396,-48 74.5294,-48"/>
<polygon fill="#191970" stroke="#191970" points="74.8113,-51.5001 84.8112,-48 74.8112,-44.5001 74.8113,-51.5001"/>
</g>
<!-- Node11 -->
<g id="node6" class="node">
<title>Node11</title>
<g id="a_node6"><a xlink:href="timer_8cpp.html#a6b6df34cc1c872e8748ca55b03bce616" target="_top" xlink:title="Timer_Run">
<polygon fill="#ffffff" stroke="#000000" points="80.5,-.5 80.5,-19.5 145.5,-19.5 145.5,-.5 80.5,-.5"/>
<text text-anchor="middle" x="113" y="-7.5" font-family="Helvetica,sans-Serif" font-size="10.00" fill="#000000">Timer_Run</text>
</a>
</g>
</g>
<!-- Node6&#45;&gt;Node11 -->
<g id="edge5" class="edge">
<title>Node6&#45;&gt;Node11</title>
<path fill="none" stroke="#191970" d="M41.0287,-39.5666C52.4805,-34.8621 67.017,-28.8903 80.0234,-23.5471"/>
<polygon fill="#191970" stroke="#191970" points="81.675,-26.6526 89.5948,-19.6151 79.0149,-20.1776 81.675,-26.6526"/>
</g>
<!-- Node8 -->
<g id="node3" class="node">
<title>Node8</title>
<g id="a_node3"><a xlink:href="button_8cpp.html#a8e88f6fba75b14911dfdbf0645b2f99d" target="_top" xlink:title="Button_FindHandler">
<polygon fill="#ffffff" stroke="#000000" points="185,-95.5 185,-114.5 288,-114.5 288,-95.5 185,-95.5"/>
<text text-anchor="middle" x="236.5" y="-102.5" font-family="Helvetica,sans-Serif" font-size="10.00" fill="#000000">Button_FindHandler</text>
</a>
</g>
</g>
<!-- Node7&#45;&gt;Node8 -->
<g id="edge2" class="edge">
<title>Node7&#45;&gt;Node8</title>
<path fill="none" stroke="#191970" d="M149.0533,-91.5467C157.0362,-92.7748 165.7165,-94.1102 174.4059,-95.4471"/>
<polygon fill="#191970" stroke="#191970" points="174.1535,-98.9493 184.5695,-97.0107 175.218,-92.0307 174.1535,-98.9493"/>
</g>
<!-- Node9 -->
<g id="node4" class="node">
<title>Node9</title>
<g id="a_node4"><a xlink:href="timer_8cpp.html#a8466e0406ba9fd7cc0827d6c4ebdf1d1" target="_top" xlink:title="Timer_FindHandler">
<polygon fill="#ffffff" stroke="#000000" points="187,-57.5 187,-76.5 286,-76.5 286,-57.5 187,-57.5"/>
<text text-anchor="middle" x="236.5" y="-64.5" font-family="Helvetica,sans-Serif" font-size="10.00" fill="#000000">Timer_FindHandler</text>
</a>
</g>
</g>
<!-- Node7&#45;&gt;Node9 -->
<g id="edge3" class="edge">
<title>Node7&#45;&gt;Node9</title>
<path fill="none" stroke="#191970" d="M149.0533,-80.4533C157.7326,-79.1181 167.2363,-77.656 176.6798,-76.2031"/>
<polygon fill="#191970" stroke="#191970" points="177.5099,-79.6167 186.8614,-74.6367 176.4454,-72.6981 177.5099,-79.6167"/>
</g>
</g>
</svg>
