<?xml version="1.0" encoding="UTF-8" standalone="no"?>
<!DOCTYPE svg PUBLIC "-//W3C//DTD SVG 1.1//EN"
 "http://www.w3.org/Graphics/SVG/1.1/DTD/svg11.dtd">
<!-- Generated by graphviz version 2.40.1 (20161225.0304)
 -->
<!-- Title: loop Pages: 1 -->
<svg width="333pt" height="104pt"
 viewBox="0.00 0.00 333.00 104.00" xmlns="http://www.w3.org/2000/svg" xmlns:xlink="http://www.w3.org/1999/xlink">
<g id="graph0" class="graph" transform="scale(1 1) rotate(0) translate(4 100)">
<title>loop</title>
<polygon fill="#ffffff" stroke="transparent" points="-4,4 -4,-100 329,-100 329,4 -4,4"/>
<!-- Node0 -->
<g id="node1" class="node">
<title>Node0</title>
<polygon fill="#bfbfbf" stroke="#000000" points="0,-38.5 0,-57.5 35,-57.5 35,-38.5 0,-38.5"/>
<text text-anchor="middle" x="17.5" y="-45.5" font-family="Helvetica,sans-Serif" font-size="10.00" fill="#000000">loop</text>
</g>
<!-- Node1 -->
<g id="node2" class="node">
<title>Node1</title>
<g id="a_node2"><a xlink:href="button_8cpp.html#aa12143d552c51003980a13783c22a582" target="_top" xlink:title="buttonTask">
<polygon fill="#ffffff" stroke="#000000" points="100,-76.5 100,-95.5 165,-95.5 165,-76.5 100,-76.5"/>
<text text-anchor="middle" x="132.5" y="-83.5" font-family="Helvetica,sans-Serif" font-size="10.00" fill="#000000">buttonTask</text>
</a>
</g>
</g>
<!-- Node0&#45;&gt;Node1 -->
<g id="edge1" class="edge">
<title>Node0&#45;&gt;Node1</title>
<path fill="none" stroke="#191970" d="M35.2694,-54.5195C45.6509,-58.276 59.0259,-63.026 71,-67 77.4847,-69.1521 84.3798,-71.3601 91.1195,-73.4743"/>
<polygon fill="#191970" stroke="#191970" points="90.2286,-76.8625 100.8168,-76.4876 92.3058,-70.1778 90.2286,-76.8625"/>
</g>
<!-- Node3 -->
<g id="node4" class="node">
<title>Node3</title>
<g id="a_node4"><a xlink:href="event__mgr_8cpp.html#a6a61401ab05245d889f02ca9825cccee" target="_top" xlink:title="EventMgr_CheckEvents">
<polygon fill="#ffffff" stroke="#000000" points="71,-38.5 71,-57.5 194,-57.5 194,-38.5 71,-38.5"/>
<text text-anchor="middle" x="132.5" y="-45.5" font-family="Helvetica,sans-Serif" font-size="10.00" fill="#000000">EventMgr_CheckEvents</text>
</a>
</g>
</g>
<!-- Node0&#45;&gt;Node3 -->
<g id="edge3" class="edge">
<title>Node0&#45;&gt;Node3</title>
<path fill="none" stroke="#191970" d="M35.4688,-48C42.613,-48 51.3354,-48 60.5901,-48"/>
<polygon fill="#191970" stroke="#191970" points="60.792,-51.5001 70.7919,-48 60.7919,-44.5001 60.792,-51.5001"/>
</g>
<!-- Node4 -->
<g id="node5" class="node">
<title>Node4</title>
<g id="a_node5"><a xlink:href="timer_8cpp.html#a1fdc7dde4c65d532a743a96631121667" target="_top" xlink:title="Timer_TaskMain">
<polygon fill="#ffffff" stroke="#000000" points="88,-.5 88,-19.5 177,-19.5 177,-.5 88,-.5"/>
<text text-anchor="middle" x="132.5" y="-7.5" font-family="Helvetica,sans-Serif" font-size="10.00" fill="#000000">Timer_TaskMain</text>
</a>
</g>
</g>
<!-- Node0&#45;&gt;Node4 -->
<g id="edge4" class="edge">
<title>Node0&#45;&gt;Node4</title>
<path fill="none" stroke="#191970" d="M35.2694,-41.4805C45.6509,-37.724 59.0259,-32.974 71,-29 77.4847,-26.8479 84.3798,-24.6399 91.1195,-22.5257"/>
<polygon fill="#191970" stroke="#191970" points="92.3058,-25.8222 100.8168,-19.5124 90.2286,-19.1375 92.3058,-25.8222"/>
</g>
<!-- Node2 -->
<g id="node3" class="node">
<title>Node2</title>
<g id="a_node3"><a xlink:href="gpio_8cpp.html#a051e6d6b22995472699132717f0d01ee" target="_top" xlink:title="Get pin state. ">
<polygon fill="#ffffff" stroke="#000000" points="230,-76.5 230,-95.5 325,-95.5 325,-76.5 230,-76.5"/>
<text text-anchor="middle" x="277.5" y="-83.5" font-family="Helvetica,sans-Serif" font-size="10.00" fill="#000000">Gpio_GetPinState</text>
</a>
</g>
</g>
<!-- Node1&#45;&gt;Node2 -->
<g id="edge2" class="edge">
<title>Node1&#45;&gt;Node2</title>
<path fill="none" stroke="#191970" d="M165.0408,-86C181.1742,-86 201.1467,-86 219.763,-86"/>
<polygon fill="#191970" stroke="#191970" points="219.933,-89.5001 229.933,-86 219.9329,-82.5001 219.933,-89.5001"/>
</g>
</g>
</svg>
