<?xml version="1.0" encoding="UTF-8" standalone="no"?>
<!DOCTYPE svg PUBLIC "-//W3C//DTD SVG 1.1//EN"
 "http://www.w3.org/Graphics/SVG/1.1/DTD/svg11.dtd">
<!-- Generated by graphviz version 2.40.1 (20161225.0304)
 -->
<!-- Title: sketch_aug19a.ino Pages: 1 -->
<svg width="297pt" height="196pt"
 viewBox="0.00 0.00 297.42 196.00" xmlns="http://www.w3.org/2000/svg" xmlns:xlink="http://www.w3.org/1999/xlink">
<g id="graph0" class="graph" transform="scale(1 1) rotate(0) translate(4 192)">
<title>sketch_aug19a.ino</title>
<polygon fill="#ffffff" stroke="transparent" points="-4,4 -4,-192 293.4162,-192 293.4162,4 -4,4"/>
<!-- Node0 -->
<g id="node1" class="node">
<title>Node0</title>
<polygon fill="#bfbfbf" stroke="#000000" points="106.9162,-168.5 106.9162,-187.5 204.9162,-187.5 204.9162,-168.5 106.9162,-168.5"/>
<text text-anchor="middle" x="155.9162" y="-175.5" font-family="Helvetica,sans-Serif" font-size="10.00" fill="#000000">sketch_aug19a.ino</text>
</g>
<!-- Node1 -->
<g id="node2" class="node">
<title>Node1</title>
<g id="a_node2"><a xlink:href="gpio_8h.html" target="_top" xlink:title="gpio.h">
<polygon fill="#ffffff" stroke="#000000" points="124.4162,-56.5 124.4162,-75.5 167.4162,-75.5 167.4162,-56.5 124.4162,-56.5"/>
<text text-anchor="middle" x="145.9162" y="-63.5" font-family="Helvetica,sans-Serif" font-size="10.00" fill="#000000">gpio.h</text>
</a>
</g>
</g>
<!-- Node0&#45;&gt;Node1 -->
<g id="edge1" class="edge">
<title>Node0&#45;&gt;Node1</title>
<path fill="none" stroke="#191970" d="M145.3572,-168.2076C136.9153,-159.6048 125.7256,-146.2634 120.9162,-132 115.3816,-115.5856 123.5843,-97.1723 132.0395,-83.974"/>
<polygon fill="#191970" stroke="#191970" points="134.9193,-85.9632 137.7677,-75.7585 129.1772,-81.9596 134.9193,-85.9632"/>
</g>
<!-- Node4 -->
<g id="node5" class="node">
<title>Node4</title>
<g id="a_node5"><a xlink:href="button_8h.html" target="_top" xlink:title="button.h">
<polygon fill="#ffffff" stroke="#000000" points="129.9162,-112.5 129.9162,-131.5 181.9162,-131.5 181.9162,-112.5 129.9162,-112.5"/>
<text text-anchor="middle" x="155.9162" y="-119.5" font-family="Helvetica,sans-Serif" font-size="10.00" fill="#000000">button.h</text>
</a>
</g>
</g>
<!-- Node0&#45;&gt;Node4 -->
<g id="edge4" class="edge">
<title>Node0&#45;&gt;Node4</title>
<path fill="none" stroke="#191970" d="M155.9162,-168.2455C155.9162,-160.9382 155.9162,-150.6944 155.9162,-141.7046"/>
<polygon fill="#191970" stroke="#191970" points="159.4163,-141.6426 155.9162,-131.6427 152.4163,-141.6427 159.4163,-141.6426"/>
</g>
<!-- Node5 -->
<g id="node6" class="node">
<title>Node5</title>
<g id="a_node6"><a xlink:href="timer_8h.html" target="_top" xlink:title="timer.h">
<polygon fill="#ffffff" stroke="#000000" points="185.4162,-56.5 185.4162,-75.5 232.4162,-75.5 232.4162,-56.5 185.4162,-56.5"/>
<text text-anchor="middle" x="208.9162" y="-63.5" font-family="Helvetica,sans-Serif" font-size="10.00" fill="#000000">timer.h</text>
</a>
</g>
</g>
<!-- Node0&#45;&gt;Node5 -->
<g id="edge6" class="edge">
<title>Node0&#45;&gt;Node5</title>
<path fill="none" stroke="#191970" d="M165.2106,-168.1656C173.0939,-159.3309 184.1674,-145.6789 190.9162,-132 198.1418,-117.3549 202.7983,-99.4017 205.561,-85.919"/>
<polygon fill="#191970" stroke="#191970" points="209.0525,-86.2888 207.451,-75.8157 202.1718,-85.0016 209.0525,-86.2888"/>
</g>
<!-- Node6 -->
<g id="node7" class="node">
<title>Node6</title>
<g id="a_node7"><a xlink:href="event__mgr_8h.html" target="_top" xlink:title="event_mgr.h">
<polygon fill="#ffffff" stroke="#000000" points="2.4162,-112.5 2.4162,-131.5 73.4162,-131.5 73.4162,-112.5 2.4162,-112.5"/>
<text text-anchor="middle" x="37.9162" y="-119.5" font-family="Helvetica,sans-Serif" font-size="10.00" fill="#000000">event_mgr.h</text>
</a>
</g>
</g>
<!-- Node0&#45;&gt;Node6 -->
<g id="edge9" class="edge">
<title>Node0&#45;&gt;Node6</title>
<path fill="none" stroke="#191970" d="M135.6313,-168.3733C116.7742,-159.4241 88.4703,-145.9917 67.1708,-135.8835"/>
<polygon fill="#191970" stroke="#191970" points="68.4714,-132.6266 57.9365,-131.5011 65.4701,-138.9506 68.4714,-132.6266"/>
</g>
<!-- Node8 -->
<g id="node9" class="node">
<title>Node8</title>
<g id="a_node9"><a xlink:href="logger_8h.html" target="_top" xlink:title="logger.h">
<polygon fill="#ffffff" stroke="#000000" points="238.4162,-112.5 238.4162,-131.5 289.4162,-131.5 289.4162,-112.5 238.4162,-112.5"/>
<text text-anchor="middle" x="263.9162" y="-119.5" font-family="Helvetica,sans-Serif" font-size="10.00" fill="#000000">logger.h</text>
</a>
</g>
</g>
<!-- Node0&#45;&gt;Node8 -->
<g id="edge15" class="edge">
<title>Node0&#45;&gt;Node8</title>
<path fill="none" stroke="#191970" d="M174.7284,-168.2455C191.7635,-159.4125 217.0737,-146.2887 236.3844,-136.2758"/>
<polygon fill="#191970" stroke="#191970" points="238.0532,-139.353 245.3197,-131.6427 234.831,-133.1388 238.0532,-139.353"/>
</g>
<!-- Node2 -->
<g id="node3" class="node">
<title>Node2</title>
<polygon fill="#ffffff" stroke="#bfbfbf" points="32.4162,-.5 32.4162,-19.5 81.4162,-19.5 81.4162,-.5 32.4162,-.5"/>
<text text-anchor="middle" x="56.9162" y="-7.5" font-family="Helvetica,sans-Serif" font-size="10.00" fill="#000000">stdint.h</text>
</g>
<!-- Node1&#45;&gt;Node2 -->
<g id="edge2" class="edge">
<title>Node1&#45;&gt;Node2</title>
<path fill="none" stroke="#191970" d="M130.4136,-56.2455C116.7583,-47.6534 96.6505,-35.0014 80.9173,-25.1018"/>
<polygon fill="#191970" stroke="#191970" points="82.5691,-22.006 72.2412,-19.6427 78.8412,-27.9307 82.5691,-22.006"/>
</g>
<!-- Node3 -->
<g id="node4" class="node">
<title>Node3</title>
<polygon fill="#ffffff" stroke="#bfbfbf" points="108.9162,-.5 108.9162,-19.5 164.9162,-19.5 164.9162,-.5 108.9162,-.5"/>
<text text-anchor="middle" x="136.9162" y="-7.5" font-family="Helvetica,sans-Serif" font-size="10.00" fill="#000000">stdbool.h</text>
</g>
<!-- Node1&#45;&gt;Node3 -->
<g id="edge3" class="edge">
<title>Node1&#45;&gt;Node3</title>
<path fill="none" stroke="#191970" d="M144.3486,-56.2455C143.1742,-48.9382 141.5278,-38.6944 140.0831,-29.7046"/>
<polygon fill="#191970" stroke="#191970" points="143.5085,-28.9606 138.466,-19.6427 136.5972,-30.0714 143.5085,-28.9606"/>
</g>
<!-- Node4&#45;&gt;Node1 -->
<g id="edge5" class="edge">
<title>Node4&#45;&gt;Node1</title>
<path fill="none" stroke="#191970" d="M154.1744,-112.2455C152.8695,-104.9382 151.0402,-94.6944 149.4349,-85.7046"/>
<polygon fill="#191970" stroke="#191970" points="152.8416,-84.8717 147.6381,-75.6427 145.9506,-86.1022 152.8416,-84.8717"/>
</g>
<!-- Node5&#45;&gt;Node2 -->
<g id="edge7" class="edge">
<title>Node5&#45;&gt;Node2</title>
<path fill="none" stroke="#191970" d="M185.1662,-57.25C159.9211,-47.9491 119.7679,-33.1559 91.1175,-22.6005"/>
<polygon fill="#191970" stroke="#191970" points="92.1,-19.2325 81.5066,-19.0596 89.68,-25.8009 92.1,-19.2325"/>
</g>
<!-- Node5&#45;&gt;Node3 -->
<g id="edge8" class="edge">
<title>Node5&#45;&gt;Node3</title>
<path fill="none" stroke="#191970" d="M196.3748,-56.2455C185.6375,-47.8943 169.9689,-35.7076 157.4116,-25.9408"/>
<polygon fill="#191970" stroke="#191970" points="159.3563,-23.0194 149.314,-19.6427 155.0587,-28.5449 159.3563,-23.0194"/>
</g>
<!-- Node6&#45;&gt;Node2 -->
<g id="edge10" class="edge">
<title>Node6&#45;&gt;Node2</title>
<path fill="none" stroke="#191970" d="M26.5315,-112.3296C13.0242,-99.6157 -6.5451,-76.4884 2.9162,-56 8.7422,-43.384 19.9231,-32.9528 30.6067,-25.2314"/>
<polygon fill="#191970" stroke="#191970" points="32.6018,-28.1076 38.9563,-19.6299 28.702,-22.2946 32.6018,-28.1076"/>
</g>
<!-- Node6&#45;&gt;Node3 -->
<g id="edge11" class="edge">
<title>Node6&#45;&gt;Node3</title>
<path fill="none" stroke="#191970" d="M46.3569,-112.4509C63.0881,-93.5227 100.6628,-51.014 121.7764,-27.1279"/>
<polygon fill="#191970" stroke="#191970" points="124.4964,-29.3354 128.4969,-19.5249 119.2516,-24.6994 124.4964,-29.3354"/>
</g>
<!-- Node7 -->
<g id="node8" class="node">
<title>Node7</title>
<g id="a_node8"><a xlink:href="actions_8h.html" target="_top" xlink:title="actions.h">
<polygon fill="#ffffff" stroke="#000000" points="11.9162,-56.5 11.9162,-75.5 67.9162,-75.5 67.9162,-56.5 11.9162,-56.5"/>
<text text-anchor="middle" x="39.9162" y="-63.5" font-family="Helvetica,sans-Serif" font-size="10.00" fill="#000000">actions.h</text>
</a>
</g>
</g>
<!-- Node6&#45;&gt;Node7 -->
<g id="edge12" class="edge">
<title>Node6&#45;&gt;Node7</title>
<path fill="none" stroke="#191970" d="M38.2646,-112.2455C38.5256,-104.9382 38.8914,-94.6944 39.2125,-85.7046"/>
<polygon fill="#191970" stroke="#191970" points="42.7126,-85.7613 39.5719,-75.6427 35.7171,-85.5113 42.7126,-85.7613"/>
</g>
<!-- Node7&#45;&gt;Node2 -->
<g id="edge13" class="edge">
<title>Node7&#45;&gt;Node2</title>
<path fill="none" stroke="#191970" d="M42.8774,-56.2455C45.1201,-48.8579 48.2739,-38.4689 51.0243,-29.4087"/>
<polygon fill="#191970" stroke="#191970" points="54.4332,-30.2282 53.989,-19.6427 47.735,-28.1948 54.4332,-30.2282"/>
</g>
<!-- Node7&#45;&gt;Node3 -->
<g id="edge14" class="edge">
<title>Node7&#45;&gt;Node3</title>
<path fill="none" stroke="#191970" d="M56.8124,-56.2455C71.8342,-47.5731 94.0206,-34.7645 111.2373,-24.825"/>
<polygon fill="#191970" stroke="#191970" points="113.3033,-27.6737 120.2138,-19.6427 109.8034,-21.6114 113.3033,-27.6737"/>
</g>
</g>
</svg>
