<?xml version="1.0" encoding="UTF-8" standalone="no"?>
<!DOCTYPE svg PUBLIC "-//W3C//DTD SVG 1.1//EN"
 "http://www.w3.org/Graphics/SVG/1.1/DTD/svg11.dtd">
<!-- Generated by graphviz version 2.40.1 (20161225.0304)
 -->
<!-- Title: timer.cpp Pages: 1 -->
<svg width="201pt" height="140pt"
 viewBox="0.00 0.00 200.50 140.00" xmlns="http://www.w3.org/2000/svg" xmlns:xlink="http://www.w3.org/1999/xlink">
<g id="graph0" class="graph" transform="scale(1 1) rotate(0) translate(4 136)">
<title>timer.cpp</title>
<polygon fill="#ffffff" stroke="transparent" points="-4,4 -4,-136 196.5,-136 196.5,4 -4,4"/>
<!-- Node0 -->
<g id="node1" class="node">
<title>Node0</title>
<polygon fill="#bfbfbf" stroke="#000000" points="71.5,-112.5 71.5,-131.5 128.5,-131.5 128.5,-112.5 71.5,-112.5"/>
<text text-anchor="middle" x="100" y="-119.5" font-family="Helvetica,sans-Serif" font-size="10.00" fill="#000000">timer.cpp</text>
</g>
<!-- Node1 -->
<g id="node2" class="node">
<title>Node1</title>
<polygon fill="#ffffff" stroke="#bfbfbf" points="0,-56.5 0,-75.5 58,-75.5 58,-56.5 0,-56.5"/>
<text text-anchor="middle" x="29" y="-63.5" font-family="Helvetica,sans-Serif" font-size="10.00" fill="#000000">Arduino.h</text>
</g>
<!-- Node0&#45;&gt;Node1 -->
<g id="edge1" class="edge">
<title>Node0&#45;&gt;Node1</title>
<path fill="none" stroke="#191970" d="M87.6327,-112.2455C77.0446,-103.8943 61.5936,-91.7076 49.2107,-81.9408"/>
<polygon fill="#191970" stroke="#191970" points="51.2447,-79.0875 41.2255,-75.6427 46.9097,-84.5837 51.2447,-79.0875"/>
</g>
<!-- Node2 -->
<g id="node3" class="node">
<title>Node2</title>
<g id="a_node3"><a xlink:href="timer_8h.html" target="_top" xlink:title="timer.h">
<polygon fill="#ffffff" stroke="#000000" points="76.5,-56.5 76.5,-75.5 123.5,-75.5 123.5,-56.5 76.5,-56.5"/>
<text text-anchor="middle" x="100" y="-63.5" font-family="Helvetica,sans-Serif" font-size="10.00" fill="#000000">timer.h</text>
</a>
</g>
</g>
<!-- Node0&#45;&gt;Node2 -->
<g id="edge2" class="edge">
<title>Node0&#45;&gt;Node2</title>
<path fill="none" stroke="#191970" d="M100,-112.2455C100,-104.9382 100,-94.6944 100,-85.7046"/>
<polygon fill="#191970" stroke="#191970" points="103.5001,-85.6426 100,-75.6427 96.5001,-85.6427 103.5001,-85.6426"/>
</g>
<!-- Node5 -->
<g id="node6" class="node">
<title>Node5</title>
<g id="a_node6"><a xlink:href="logger_8h.html" target="_top" xlink:title="logger.h">
<polygon fill="#ffffff" stroke="#000000" points="141.5,-56.5 141.5,-75.5 192.5,-75.5 192.5,-56.5 141.5,-56.5"/>
<text text-anchor="middle" x="167" y="-63.5" font-family="Helvetica,sans-Serif" font-size="10.00" fill="#000000">logger.h</text>
</a>
</g>
</g>
<!-- Node0&#45;&gt;Node5 -->
<g id="edge5" class="edge">
<title>Node0&#45;&gt;Node5</title>
<path fill="none" stroke="#191970" d="M111.6705,-112.2455C121.5661,-103.9746 135.9627,-91.9416 147.5901,-82.2232"/>
<polygon fill="#191970" stroke="#191970" points="150.035,-84.7413 155.4632,-75.6427 145.5458,-79.3703 150.035,-84.7413"/>
</g>
<!-- Node3 -->
<g id="node4" class="node">
<title>Node3</title>
<polygon fill="#ffffff" stroke="#bfbfbf" points="39.5,-.5 39.5,-19.5 88.5,-19.5 88.5,-.5 39.5,-.5"/>
<text text-anchor="middle" x="64" y="-7.5" font-family="Helvetica,sans-Serif" font-size="10.00" fill="#000000">stdint.h</text>
</g>
<!-- Node2&#45;&gt;Node3 -->
<g id="edge3" class="edge">
<title>Node2&#45;&gt;Node3</title>
<path fill="none" stroke="#191970" d="M93.7293,-56.2455C88.7736,-48.5367 81.717,-37.5598 75.7224,-28.2348"/>
<polygon fill="#191970" stroke="#191970" points="78.5506,-26.1618 70.1989,-19.6427 72.6624,-29.9471 78.5506,-26.1618"/>
</g>
<!-- Node4 -->
<g id="node5" class="node">
<title>Node4</title>
<polygon fill="#ffffff" stroke="#bfbfbf" points="107,-.5 107,-19.5 163,-19.5 163,-.5 107,-.5"/>
<text text-anchor="middle" x="135" y="-7.5" font-family="Helvetica,sans-Serif" font-size="10.00" fill="#000000">stdbool.h</text>
</g>
<!-- Node2&#45;&gt;Node4 -->
<g id="edge4" class="edge">
<title>Node2&#45;&gt;Node4</title>
<path fill="none" stroke="#191970" d="M106.0965,-56.2455C110.9145,-48.5367 117.7751,-37.5598 123.6032,-28.2348"/>
<polygon fill="#191970" stroke="#191970" points="126.6413,-29.9777 128.9733,-19.6427 120.7053,-26.2677 126.6413,-29.9777"/>
</g>
</g>
</svg>
