<?xml version="1.0" encoding="UTF-8" standalone="no"?>
<!DOCTYPE svg PUBLIC "-//W3C//DTD SVG 1.1//EN"
 "http://www.w3.org/Graphics/SVG/1.1/DTD/svg11.dtd">
<!-- Generated by graphviz version 2.40.1 (20161225.0304)
 -->
<!-- Title: timer.h Pages: 1 -->
<svg width="366pt" height="84pt"
 viewBox="0.00 0.00 366.00 84.00" xmlns="http://www.w3.org/2000/svg" xmlns:xlink="http://www.w3.org/1999/xlink">
<g id="graph0" class="graph" transform="scale(1 1) rotate(0) translate(4 80)">
<title>timer.h</title>
<polygon fill="#ffffff" stroke="transparent" points="-4,4 -4,-80 362,-80 362,4 -4,4"/>
<!-- Node3 -->
<g id="node1" class="node">
<title>Node3</title>
<polygon fill="#bfbfbf" stroke="#000000" points="156,-56.5 156,-75.5 203,-75.5 203,-56.5 156,-56.5"/>
<text text-anchor="middle" x="179.5" y="-63.5" font-family="Helvetica,sans-Serif" font-size="10.00" fill="#000000">timer.h</text>
</g>
<!-- Node4 -->
<g id="node2" class="node">
<title>Node4</title>
<g id="a_node2"><a xlink:href="actions_8cpp.html" target="_top" xlink:title="actions.cpp">
<polygon fill="#ffffff" stroke="#000000" points="0,-.5 0,-19.5 67,-19.5 67,-.5 0,-.5"/>
<text text-anchor="middle" x="33.5" y="-7.5" font-family="Helvetica,sans-Serif" font-size="10.00" fill="#000000">actions.cpp</text>
</a>
</g>
</g>
<!-- Node3&#45;&gt;Node4 -->
<g id="edge1" class="edge">
<title>Node3&#45;&gt;Node4</title>
<path fill="none" stroke="#191970" d="M146.0713,-53.178C119.4992,-42.986 82.9024,-28.9489 58.7425,-19.682"/>
<polygon fill="#191970" stroke="#191970" points="145.1274,-56.5646 155.7176,-56.878 147.6343,-50.0289 145.1274,-56.5646"/>
</g>
<!-- Node5 -->
<g id="node3" class="node">
<title>Node5</title>
<g id="a_node3"><a xlink:href="event__mgr_8cpp.html" target="_top" xlink:title="event_mgr.cpp">
<polygon fill="#ffffff" stroke="#000000" points="85,-.5 85,-19.5 166,-19.5 166,-.5 85,-.5"/>
<text text-anchor="middle" x="125.5" y="-7.5" font-family="Helvetica,sans-Serif" font-size="10.00" fill="#000000">event_mgr.cpp</text>
</a>
</g>
</g>
<!-- Node3&#45;&gt;Node5 -->
<g id="edge2" class="edge">
<title>Node3&#45;&gt;Node5</title>
<path fill="none" stroke="#191970" d="M162.9031,-48.7884C153.6653,-39.2085 142.5096,-27.6396 134.7983,-19.6427"/>
<polygon fill="#191970" stroke="#191970" points="160.6331,-51.4766 170.0939,-56.2455 165.672,-46.6176 160.6331,-51.4766"/>
</g>
<!-- Node6 -->
<g id="node4" class="node">
<title>Node6</title>
<g id="a_node4"><a xlink:href="sketch__aug19a_8ino.html" target="_top" xlink:title="sketch_aug19a.ino">
<polygon fill="#ffffff" stroke="#000000" points="184.5,-.5 184.5,-19.5 282.5,-19.5 282.5,-.5 184.5,-.5"/>
<text text-anchor="middle" x="233.5" y="-7.5" font-family="Helvetica,sans-Serif" font-size="10.00" fill="#000000">sketch_aug19a.ino</text>
</a>
</g>
</g>
<!-- Node3&#45;&gt;Node6 -->
<g id="edge3" class="edge">
<title>Node3&#45;&gt;Node6</title>
<path fill="none" stroke="#191970" d="M196.0969,-48.7884C205.3347,-39.2085 216.4904,-27.6396 224.2017,-19.6427"/>
<polygon fill="#191970" stroke="#191970" points="193.328,-46.6176 188.9061,-56.2455 198.3669,-51.4766 193.328,-46.6176"/>
</g>
<!-- Node7 -->
<g id="node5" class="node">
<title>Node7</title>
<g id="a_node5"><a xlink:href="timer_8cpp.html" target="_top" xlink:title="timer.cpp">
<polygon fill="#ffffff" stroke="#000000" points="301,-.5 301,-19.5 358,-19.5 358,-.5 301,-.5"/>
<text text-anchor="middle" x="329.5" y="-7.5" font-family="Helvetica,sans-Serif" font-size="10.00" fill="#000000">timer.cpp</text>
</a>
</g>
</g>
<!-- Node3&#45;&gt;Node7 -->
<g id="edge4" class="edge">
<title>Node3&#45;&gt;Node7</title>
<path fill="none" stroke="#191970" d="M212.8507,-53.5491C240.3236,-43.2925 278.7139,-28.9601 303.834,-19.582"/>
<polygon fill="#191970" stroke="#191970" points="211.4122,-50.3501 203.2679,-57.1266 213.8605,-56.908 211.4122,-50.3501"/>
</g>
</g>
</svg>
